<svg width="280" height="80" viewBox="0 0 280 80" fill="none" xmlns="http://www.w3.org/2000/svg">
<rect width="280" height="80" rx="10" fill="#EF9B11"/>
<path d="M106.204 26.4164C106.204 27.487 105.808 28.4238 105.282 29.0929C104.491 29.8959 103.569 30.2974 102.384 30.2974C101.198 30.2974 100.276 29.8959 99.486 29.0929C98.6957 28.29 98.3006 27.3532 98.3006 26.1487C98.3006 24.9442 98.6957 24.0074 99.486 23.2045C100.276 22.4015 101.198 22 102.384 22C102.911 22 103.438 22.1338 103.964 22.4015C104.491 22.6692 104.886 22.9368 105.15 23.3383L104.491 24.0074C103.964 23.3383 103.306 23.0706 102.252 23.0706C101.462 23.0706 100.671 23.3383 100.145 24.0074C99.486 24.5428 99.2226 25.3457 99.2226 26.2825C99.2226 27.2193 99.486 28.0223 100.145 28.5576C100.803 29.0929 101.462 29.4944 102.252 29.4944C103.174 29.4944 103.833 29.2268 104.491 28.5576C104.886 28.1561 105.15 27.6208 105.15 26.9517H102.252V26.0149H106.072C106.204 26.0149 106.204 26.2825 106.204 26.4164Z" fill="#2F2F2F"/>
<path d="M112.391 23.0692H108.835V25.612H112.128V26.5488H108.835V29.0915H112.391V30.0283H107.781V22.1324H112.391C112.391 22.1324 112.391 23.0692 112.391 23.0692Z" fill="#2F2F2F"/>
<path d="M116.606 30.0283H115.553V23.0692H113.445V22.1324H118.845V23.0692H116.606C116.606 23.0692 116.606 30.0283 116.606 30.0283Z" fill="#2F2F2F"/>
<path d="M122.804 30.0283V22.1324H123.858V30.0283H122.804Z" fill="#2F2F2F"/>
<path d="M128.336 30.0288H127.282V23.0697H125.043V22.1329H130.575V23.0697H128.336C128.336 23.0697 128.336 30.0288 128.336 30.0288Z" fill="#2F2F2F"/>
<path d="M140.848 29.0934C140.058 29.8964 139.136 30.2979 137.95 30.2979C136.765 30.2979 135.843 29.8964 135.052 29.0934C134.262 28.2904 133.867 27.3536 133.867 26.1492C133.867 24.9447 134.262 24.0079 135.052 23.2049C135.843 22.4019 136.765 22.0005 137.95 22.0005C139.136 22.0005 140.058 22.4019 140.848 23.2049C141.638 24.0079 142.033 24.9447 142.033 26.1492C142.033 27.2198 141.638 28.2904 140.848 29.0934ZM135.711 28.4242C136.238 28.9596 137.028 29.361 137.818 29.361C138.609 29.361 139.399 29.0934 139.926 28.4242C140.453 27.8889 140.848 27.086 140.848 26.1492C140.848 25.2124 140.585 24.4094 139.926 23.8741C139.399 23.3387 138.609 22.9373 137.818 22.9373C137.028 22.9373 136.238 23.2049 135.711 23.8741C135.184 24.4094 134.789 25.2124 134.789 26.1492C134.921 27.086 135.184 27.7551 135.711 28.4242Z" fill="#2F2F2F"/>
<path d="M143.484 30.0283V22.1324H144.67L148.489 28.2885V26.8164V22.1324H149.543V30.0283H148.489L144.406 23.6045V25.0766V30.0283H143.484Z" fill="#2F2F2F"/>
<path d="M133.868 41.6729C130.707 41.6729 128.204 44.0818 128.204 47.2937C128.204 50.5056 130.707 52.9145 133.868 52.9145C137.029 52.9145 139.532 50.5056 139.532 47.2937C139.532 44.0818 137.029 41.6729 133.868 41.6729ZM133.868 50.7732C132.156 50.7732 130.707 49.3011 130.707 47.2937C130.707 45.2863 132.156 43.8141 133.868 43.8141C135.58 43.8141 137.029 45.1524 137.029 47.2937C137.029 49.3011 135.58 50.7732 133.868 50.7732ZM121.618 41.6729C118.457 41.6729 115.955 44.0818 115.955 47.2937C115.955 50.5056 118.457 52.9145 121.618 52.9145C124.78 52.9145 127.282 50.5056 127.282 47.2937C127.151 44.0818 124.648 41.6729 121.618 41.6729ZM121.618 50.7732C119.906 50.7732 118.457 49.3011 118.457 47.2937C118.457 45.2863 119.906 43.8141 121.618 43.8141C123.331 43.8141 124.78 45.1524 124.78 47.2937C124.78 49.3011 123.331 50.7732 121.618 50.7732ZM106.998 43.4127V45.8216H112.662C112.53 47.1599 112.003 48.0967 111.345 48.7658C110.554 49.5688 109.237 50.5056 106.998 50.5056C103.442 50.5056 100.807 47.6952 100.807 44.0818C100.807 40.4684 103.573 37.658 106.998 37.658C108.842 37.658 110.291 38.461 111.345 39.3978L113.057 37.658C111.608 36.3197 109.764 35.2491 107.13 35.2491C102.256 35.2491 98.3047 39.1301 98.3047 43.948C98.3047 48.7658 102.388 52.6468 107.13 52.6468C109.764 52.6468 111.74 51.8439 113.189 50.2379C114.769 48.632 115.296 46.4907 115.296 44.6171C115.296 44.0818 115.296 43.5465 115.164 43.145C114.901 43.4127 106.998 43.4127 106.998 43.4127ZM166.797 45.2863C166.27 44.0818 164.953 41.6729 161.924 41.6729C159.026 41.6729 156.655 43.948 156.655 47.2937C156.655 50.5056 159.026 52.9145 162.187 52.9145C164.821 52.9145 166.27 51.3086 166.929 50.3718L164.953 49.0335C164.295 49.9703 163.504 50.6394 162.187 50.6394C161.002 50.6394 160.08 50.1041 159.421 48.8996L166.929 45.8216C167.061 45.9554 166.797 45.2863 166.797 45.2863ZM159.158 47.1599C159.158 45.0186 160.87 43.8141 162.055 43.8141C162.977 43.8141 163.899 44.3495 164.163 45.0186L159.158 47.1599ZM152.967 52.6468H155.47V36.0521H152.967V52.6468ZM149.015 42.8773C148.357 42.2082 147.303 41.6729 145.986 41.6729C143.22 41.6729 140.586 44.2156 140.586 47.2937C140.586 50.5056 143.22 52.9145 145.986 52.9145C147.303 52.9145 148.357 52.3792 148.884 51.5762H149.015V52.3792C149.015 54.5205 147.83 55.7249 145.986 55.7249C144.537 55.7249 143.483 54.6543 143.22 53.7175L141.112 54.6543C141.771 56.1264 143.352 58 146.118 58C149.015 58 151.518 56.2602 151.518 52.1115V41.9405H149.147L149.015 42.8773ZM146.118 50.7732C144.405 50.7732 142.956 49.3011 142.956 47.4275C142.956 45.4201 144.405 43.948 146.118 43.948C147.83 43.948 149.147 45.4201 149.147 47.4275C149.147 49.3011 147.83 50.7732 146.118 50.7732ZM178.256 36.0521H172.329V52.6468H174.832V46.3569H178.256C181.023 46.3569 183.657 44.3495 183.657 41.2714C183.789 38.0595 181.023 36.0521 178.256 36.0521ZM178.388 44.0818H174.832V38.3272H178.388C180.232 38.3272 181.286 39.7993 181.286 41.1376C181.286 42.4758 180.232 44.0818 178.388 44.0818ZM193.667 41.6729C191.823 41.6729 189.979 42.4759 189.321 44.2156L191.56 45.1524C192.087 44.2156 192.877 43.948 193.799 43.948C195.116 43.948 196.433 44.7509 196.433 46.0892V46.2231C196.038 45.9554 194.984 45.5539 193.799 45.5539C191.428 45.5539 189.057 46.8922 189.057 49.3011C189.057 51.5762 191.033 52.9145 193.14 52.9145C194.853 52.9145 195.775 52.1115 196.302 51.3086H196.433V52.6468H198.804V46.2231C198.672 43.2788 196.433 41.6729 193.667 41.6729ZM193.272 50.7732C192.482 50.7732 191.296 50.3718 191.296 49.435C191.296 48.0967 192.745 47.6952 193.931 47.6952C194.984 47.6952 195.511 47.9628 196.17 48.2305C196.038 49.7026 194.721 50.7732 193.272 50.7732ZM207.234 42.0744L204.468 49.3011H204.336L201.439 42.0744H198.804L203.151 52.1115L200.648 57.7324H203.283L210 42.0744H207.234ZM185.106 52.6468H187.608V36.0521H185.106V52.6468Z" fill="#2F2F2F"/>
<path d="M57.6541 23.1393C57.2617 23.5381 57 24.2027 57 25.0003V54.1112C57 54.9088 57.2617 55.5734 57.6541 55.9722L57.785 56.1051L74.0077 39.7551V39.3564L57.6541 23.1393Z" fill="url(#paint0_linear_2_30)"/>
<path d="M79.3718 45.2048L74.0078 39.7548V39.3561L79.3718 33.9061L79.5026 34.039L85.9132 37.7609C87.7448 38.8244 87.7448 40.5524 85.9132 41.6158L79.3718 45.2048C79.3718 45.2048 79.5026 45.2048 79.3718 45.2048Z" fill="url(#paint1_linear_2_30)"/>
<path d="M79.5046 45.2039L74.0098 39.621L57.6562 55.971C58.3104 56.6356 59.2262 56.6356 60.4036 56.1039L79.5046 45.2039Z" fill="url(#paint2_linear_2_30)"/>
<path d="M79.5046 34.039L60.4036 23.1391C59.2262 22.4744 58.3104 22.6073 57.6562 23.272L74.0098 39.622L79.5046 34.039Z" fill="url(#paint3_linear_2_30)"/>
<defs>
<linearGradient id="paint0_linear_2_30" x1="72.5428" y1="54.4049" x2="50.4422" y2="32.3962" gradientUnits="userSpaceOnUse">
<stop stop-color="#00A0FF"/>
<stop offset="0.0066" stop-color="#00A1FF"/>
<stop offset="0.2601" stop-color="#00BEFF"/>
<stop offset="0.5122" stop-color="#00D2FF"/>
<stop offset="0.7604" stop-color="#00DFFF"/>
<stop offset="1" stop-color="#00E3FF"/>
</linearGradient>
<linearGradient id="paint1_linear_2_30" x1="88.2885" y1="39.5554" x2="56.5562" y2="39.5554" gradientUnits="userSpaceOnUse">
<stop stop-color="#FFE000"/>
<stop offset="0.4087" stop-color="#FFBD00"/>
<stop offset="0.7754" stop-color="#FFA500"/>
<stop offset="1" stop-color="#FF9C00"/>
</linearGradient>
<linearGradient id="paint2_linear_2_30" x1="65.5553" y1="47.5172" x2="35.5851" y2="17.6717" gradientUnits="userSpaceOnUse">
<stop stop-color="#FF3A44"/>
<stop offset="1" stop-color="#C31162"/>
</linearGradient>
<linearGradient id="paint3_linear_2_30" x1="42.6159" y1="54.7608" x2="55.999" y2="41.4335" gradientUnits="userSpaceOnUse">
<stop stop-color="#32A071"/>
<stop offset="0.0685" stop-color="#2DA771"/>
<stop offset="0.4762" stop-color="#15CF74"/>
<stop offset="0.8009" stop-color="#06E775"/>
<stop offset="1" stop-color="#00F076"/>
</linearGradient>
</defs>
</svg>
