<svg width="47" height="18" viewBox="0 0 47 18" fill="none" xmlns="http://www.w3.org/2000/svg">
<rect width="47" height="18" rx="9" fill="white"/>
<path d="M11.3265 8.62335C11.3265 7.30019 12.1459 6.63861 12.209 6.59726C11.7362 5.68759 10.9798 5.56354 10.7276 5.56354C10.0973 5.48085 9.49844 6.05973 9.18326 6.05973C8.86808 6.05973 8.36379 5.56354 7.8595 5.60489C7.19763 5.60489 6.56727 6.14243 6.22057 6.92805C5.49566 8.54065 6.03146 10.9389 6.72486 12.262C7.07156 12.9236 7.48129 13.6265 7.98558 13.5852C8.48986 13.5438 8.67897 13.1717 9.30933 13.1717C9.90817 13.1717 10.0973 13.5852 10.6331 13.5852C11.1689 13.5852 11.5156 12.9236 11.8623 12.3034C12.272 11.5591 12.4296 10.8562 12.4296 10.8148C12.3981 10.7321 11.358 10.1946 11.3265 8.62335Z" fill="#372AA4"/>
<path d="M10.3174 4.69529C10.601 4.24045 10.7901 3.62022 10.7271 2.99999C10.3174 3.04134 9.84459 3.37213 9.52941 3.78562C9.27727 4.15775 9.05664 4.81933 9.11968 5.39822C9.59245 5.48091 10.0337 5.15012 10.3174 4.69529Z" fill="#372AA4"/>
<path d="M19.8698 13.3742H19.1572L18.7854 11.7888H17.453L17.0812 13.3742H16.3995L17.7319 7.96777H18.5375L19.8698 13.3742ZM18.6924 11.1384L18.3516 9.71571C18.3206 9.55311 18.2586 9.22791 18.1347 8.69947C18.1037 8.94336 18.0417 9.26856 17.9488 9.71571L17.5769 11.1384H18.6924Z" fill="#2F2F2F"/>
<path d="M23.3087 11.382C23.3087 12.0324 23.1848 12.5609 22.9059 12.9674C22.658 13.2926 22.3482 13.4958 22.0073 13.4958C21.6045 13.4958 21.3257 13.2926 21.1707 12.9267V14.9999H20.52V10.7723C20.52 10.3658 20.52 9.91866 20.4891 9.47151H21.0778L21.1088 10.0813C21.3257 9.63411 21.6665 9.39021 22.1003 9.39021C22.4411 9.39021 22.751 9.55281 22.9679 9.91866C23.1848 10.2845 23.3087 10.7723 23.3087 11.382ZM22.627 11.4227C22.627 11.0568 22.5651 10.7317 22.4411 10.4878C22.2862 10.2439 22.1003 10.1219 21.8524 10.1219C21.6975 10.1219 21.5426 10.2032 21.4186 10.3252C21.2947 10.4878 21.2017 10.6504 21.1707 10.8943C21.1397 11.0162 21.1397 11.0975 21.1397 11.1381V11.7885C21.1397 12.0731 21.2017 12.317 21.3257 12.5202C21.4496 12.7235 21.6355 12.8048 21.8524 12.8048C22.1003 12.8048 22.2862 12.6828 22.4411 12.4389C22.5651 12.1544 22.627 11.8292 22.627 11.4227Z" fill="#2F2F2F"/>
<path d="M26.7171 11.3822C26.7171 12.0326 26.5932 12.561 26.3143 12.9675C26.0664 13.2927 25.7566 13.496 25.4158 13.496C25.0129 13.496 24.7341 13.2927 24.5792 12.9269V15H23.9285V10.7724C23.9285 10.3659 23.9285 9.91879 23.8975 9.47164H24.4862L24.5172 10.0814C24.7341 9.63424 25.0749 9.39034 25.5087 9.39034C25.8495 9.39034 26.1594 9.55294 26.3763 9.91879C26.5932 10.2846 26.7171 10.7724 26.7171 11.3822ZM26.0355 11.4228C26.0355 11.057 25.9735 10.7318 25.8495 10.4879C25.6946 10.244 25.5087 10.122 25.2608 10.122C25.1059 10.122 24.951 10.2033 24.827 10.3253C24.7031 10.4879 24.6101 10.6505 24.5792 10.8944C24.5482 11.0163 24.5482 11.0976 24.5482 11.1383V11.7887C24.5482 12.0732 24.6101 12.3171 24.7341 12.5204C24.858 12.7236 25.0439 12.8049 25.2608 12.8049C25.5087 12.8049 25.6946 12.683 25.8495 12.4391C25.9735 12.1545 26.0355 11.8293 26.0355 11.4228Z" fill="#2F2F2F"/>
<path d="M30.5277 11.8699C30.5277 12.3171 30.4037 12.7236 30.1559 13.0081C29.877 13.3333 29.5052 13.4959 29.0404 13.4959C28.6066 13.4959 28.2348 13.374 27.9869 13.1707L28.1418 12.439C28.4207 12.6829 28.7615 12.8049 29.1024 12.8049C29.3502 12.8049 29.5362 12.7236 29.6911 12.6016C29.815 12.439 29.908 12.2764 29.908 11.9919C29.908 11.7886 29.846 11.5854 29.7221 11.4228C29.5981 11.2602 29.4122 11.1382 29.1643 11.0163C28.4517 10.6504 28.0799 10.1626 28.0799 9.47159C28.0799 9.02445 28.2038 8.6586 28.4517 8.37405C28.6996 8.08951 29.0404 7.96756 29.4742 7.96756C29.846 7.96756 30.1559 8.04886 30.4037 8.21145L30.2178 8.86185C29.9699 8.69925 29.7221 8.61795 29.4432 8.61795C29.1953 8.61795 29.0404 8.69925 28.8855 8.86185C28.7615 8.9838 28.7305 9.1464 28.7305 9.34965C28.7305 9.55289 28.7925 9.75614 28.9165 9.87809C29.0404 10 29.2263 10.1626 29.5052 10.2846C29.846 10.4878 30.1249 10.6911 30.2798 10.935C30.4657 11.1789 30.5277 11.5041 30.5277 11.8699Z" fill="#2F2F2F"/>
<path d="M32.7279 10.1218H32.0152V12.0324C32.0152 12.5202 32.1392 12.7641 32.387 12.7641C32.511 12.7641 32.6039 12.7641 32.6659 12.7234L32.6969 13.3738C32.5729 13.4551 32.387 13.4551 32.1701 13.4551C31.9223 13.4551 31.7054 13.3331 31.5504 13.1299C31.3955 12.9267 31.3335 12.5608 31.3335 12.073V10.1218H30.8997V9.47143H31.3335V8.73974L31.9842 8.49584V9.47143H32.6969C32.7279 9.47143 32.7279 10.1218 32.7279 10.1218Z" fill="#2F2F2F"/>
<path d="M36.0125 11.382C36.0125 11.9918 35.8886 12.4796 35.6097 12.8454C35.3308 13.2519 34.959 13.4552 34.5252 13.4552C34.0914 13.4552 33.7506 13.2519 33.4717 12.8861C33.1928 12.5202 33.0689 12.0324 33.0689 11.4633C33.0689 10.8536 33.1928 10.3658 33.4717 9.95931C33.7506 9.59346 34.0914 9.39021 34.5562 9.39021C34.99 9.39021 35.3308 9.59346 35.6097 9.95931C35.8886 10.3252 36.0125 10.813 36.0125 11.382ZM35.3308 11.4227C35.3308 11.0568 35.2688 10.7723 35.1449 10.4878C35.021 10.1626 34.8041 10.0406 34.5562 10.0406C34.2773 10.0406 34.0914 10.2032 33.9365 10.4878C33.8125 10.7317 33.7506 11.0568 33.7506 11.4227C33.7506 11.7885 33.8125 12.0731 33.9365 12.3576C34.0914 12.6828 34.2773 12.8048 34.5252 12.8048C34.7731 12.8048 34.99 12.6422 35.1139 12.317C35.2689 12.0731 35.3308 11.7885 35.3308 11.4227Z" fill="#2F2F2F"/>
<path d="M38.1512 10.244C38.0892 10.244 38.0273 10.2033 37.9343 10.2033C37.6864 10.2033 37.5315 10.3253 37.4076 10.5692C37.2836 10.7724 37.2526 11.0163 37.2526 11.3415V13.374H36.6019V10.6911C36.6019 10.244 36.6019 9.83749 36.571 9.47164H37.1597L37.1907 10.2033H37.2216C37.2836 9.95944 37.4076 9.75619 37.5625 9.59359C37.7174 9.47164 37.8723 9.39034 38.0273 9.39034C38.0892 9.39034 38.1512 9.39034 38.1822 9.39034C38.1512 9.43099 38.1512 10.244 38.1512 10.244Z" fill="#2F2F2F"/>
<path d="M41.1258 11.26C41.1258 11.4225 41.1258 11.5445 41.0948 11.6664H39.1117C39.1117 12.0323 39.2047 12.3575 39.3906 12.5607C39.5455 12.7233 39.7624 12.8453 40.0413 12.8453C40.3202 12.8453 40.599 12.764 40.8469 12.642L40.9399 13.2518C40.661 13.4144 40.3202 13.4957 39.9483 13.4957C39.4836 13.4957 39.1117 13.3331 38.8639 12.9672C38.616 12.6014 38.4611 12.1542 38.4611 11.5445C38.4611 10.9754 38.585 10.447 38.8329 10.0811C39.0808 9.67461 39.4216 9.47137 39.8864 9.47137C40.3202 9.47137 40.63 9.67461 40.8469 10.0811C41.0328 10.325 41.1258 10.7722 41.1258 11.26ZM40.4751 11.0161C40.4751 10.7722 40.4441 10.5283 40.3511 10.3657C40.2272 10.1218 40.0723 9.99981 39.8244 9.99981C39.6075 9.99981 39.4216 10.1218 39.2977 10.3657C39.1737 10.5689 39.1117 10.7722 39.1117 11.0567L40.4751 11.0161Z" fill="#2F2F2F"/>
<path d="M18.0736 4.63444C18.0736 5.12224 17.9497 5.48809 17.7328 5.73199C17.5159 5.93523 17.237 6.05718 16.8652 6.05718C16.6793 6.05718 16.5244 6.05718 16.4004 6.01653V3.41495C16.5863 3.37431 16.7723 3.37431 16.9582 3.37431C17.299 3.37431 17.5779 3.4556 17.7638 3.65885C17.9807 3.90275 18.0736 4.22795 18.0736 4.63444ZM17.7328 4.63444C17.7328 4.30925 17.6708 4.106 17.5469 3.90275C17.4229 3.74015 17.237 3.65885 16.9891 3.65885C16.8962 3.65885 16.8032 3.65885 16.7413 3.6995V5.69134C16.7723 5.69134 16.8652 5.69134 16.9582 5.69134C17.206 5.69134 17.392 5.61004 17.5469 5.40679C17.7018 5.20354 17.7328 5.00029 17.7328 4.63444Z" fill="#2F2F2F"/>
<path d="M19.9013 5.04081C19.9013 5.32536 19.8393 5.56926 19.7154 5.7725C19.5914 5.97575 19.4055 6.05705 19.1886 6.05705C18.9717 6.05705 18.8168 5.97575 18.6619 5.7725C18.5379 5.56926 18.476 5.36601 18.476 5.08146C18.476 4.79691 18.5379 4.55301 18.6619 4.34977C18.7858 4.14652 18.9717 4.06522 19.1886 4.06522C19.4055 4.06522 19.5604 4.14652 19.7154 4.34977C19.8393 4.55301 19.9013 4.75626 19.9013 5.04081ZM19.5604 5.08146C19.5604 4.91886 19.5294 4.75626 19.4675 4.63431C19.4055 4.47171 19.3126 4.39042 19.1886 4.39042C19.0647 4.39042 18.9717 4.47171 18.8788 4.63431C18.8168 4.75626 18.7858 4.91886 18.7858 5.08146C18.7858 5.24406 18.8168 5.40666 18.8788 5.52861C18.9407 5.6912 19.0337 5.7725 19.1886 5.7725C19.3126 5.7725 19.4055 5.6912 19.4675 5.52861C19.5294 5.40666 19.5604 5.24406 19.5604 5.08146Z" fill="#2F2F2F"/>
<path d="M22.3498 4.10571L21.885 6.01625H21.5752L21.3893 5.20325C21.3273 5 21.2963 4.79676 21.2653 4.59351C21.2343 4.79676 21.2034 5 21.1414 5.20325L20.9555 6.01625H20.6456L20.2118 4.10571H20.5527L20.7076 5C20.7386 5.20325 20.7696 5.4065 20.8006 5.60975C20.8315 5.44715 20.8625 5.2439 20.9245 5L21.1414 4.10571H21.4203L21.6062 5C21.6681 5.20325 21.6991 5.44715 21.7301 5.6504C21.7611 5.44715 21.7921 5.2439 21.8231 5L22.009 4.10571H22.3498Z" fill="#2F2F2F"/>
<path d="M24.0234 6.01639H23.7135V4.91885C23.7135 4.59366 23.6206 4.43106 23.4347 4.43106C23.3417 4.43106 23.2488 4.47171 23.1868 4.55301C23.1248 4.6343 23.0938 4.75625 23.0938 4.8782V6.01639H22.784V4.6343C22.784 4.47171 22.784 4.26846 22.784 4.10586H23.0319V4.39041C23.0629 4.30911 23.1248 4.22781 23.1868 4.14651C23.2797 4.06521 23.3727 4.02456 23.4657 4.02456C23.5896 4.02456 23.7135 4.06521 23.8065 4.18716C23.9304 4.30911 23.9614 4.55301 23.9614 4.83755V6.01639H24.0234V6.01639Z" fill="#2F2F2F"/>
<path d="M24.9206 6.01647H24.6107V3.25229H24.9206V6.01647Z" fill="#2F2F2F"/>
<path d="M26.843 5.04081C26.843 5.32536 26.781 5.56926 26.657 5.7725C26.5331 5.97575 26.3472 6.05705 26.1303 6.05705C25.9134 6.05705 25.7585 5.97575 25.6035 5.7725C25.4796 5.56926 25.4176 5.36601 25.4176 5.08146C25.4176 4.79691 25.4796 4.55301 25.6035 4.34977C25.7275 4.14652 25.9134 4.06522 26.1303 4.06522C26.3472 4.06522 26.5021 4.14652 26.657 4.34977C26.781 4.55301 26.843 4.75626 26.843 5.04081ZM26.5021 5.08146C26.5021 4.91886 26.4711 4.75626 26.4092 4.63431C26.3472 4.47171 26.2542 4.39042 26.1303 4.39042C26.0064 4.39042 25.9134 4.47171 25.8204 4.63431C25.7585 4.75626 25.7275 4.91886 25.7275 5.08146C25.7275 5.24406 25.7585 5.40666 25.8204 5.52861C25.8824 5.6912 25.9754 5.7725 26.1303 5.7725C26.2542 5.7725 26.3472 5.6912 26.4092 5.52861C26.4711 5.40666 26.5021 5.24406 26.5021 5.08146Z" fill="#2F2F2F"/>
<path d="M28.3922 6.0164H28.1134L28.0824 5.81315C27.9894 5.97575 27.8345 6.05705 27.6486 6.05705C27.5246 6.05705 27.4007 6.0164 27.3078 5.89445C27.2458 5.7725 27.1838 5.65056 27.1838 5.48796C27.1838 5.24406 27.2458 5.08146 27.4007 4.95951C27.5556 4.83756 27.7725 4.75626 28.0204 4.79691V4.75626C28.0204 4.51236 27.9275 4.39042 27.7106 4.39042C27.5556 4.39042 27.4317 4.43107 27.3387 4.51236L27.3078 4.22782C27.4317 4.10587 27.6176 4.06522 27.8035 4.06522C28.1753 4.06522 28.3612 4.30912 28.3612 4.83756V5.52861C28.3922 5.7725 28.3922 5.9351 28.3922 6.0164ZM28.0514 5.36601V5.08146C27.6796 5.08146 27.5246 5.20341 27.5246 5.44731C27.5246 5.52861 27.5556 5.60991 27.5866 5.6912C27.6176 5.73185 27.6796 5.7725 27.7415 5.7725C27.8035 5.7725 27.8655 5.73185 27.9275 5.6912C27.9894 5.65056 28.0204 5.56926 28.0514 5.44731C28.0514 5.40666 28.0514 5.40666 28.0514 5.36601Z" fill="#2F2F2F"/>
<path d="M30.2507 6.01647H29.9718V5.69127C29.8789 5.93517 29.7239 6.05712 29.507 6.05712C29.3211 6.05712 29.1972 5.97582 29.0733 5.77257C28.9493 5.56933 28.8873 5.36608 28.8873 5.08153C28.8873 4.75633 28.9493 4.51243 29.0733 4.30919C29.1972 4.14659 29.3521 4.02464 29.538 4.02464C29.7239 4.02464 29.8789 4.10594 29.9408 4.26854V3.25229H30.2507V5.52868C30.2197 5.69127 30.2507 5.85387 30.2507 6.01647ZM29.9098 5.20348V4.87828C29.9098 4.83763 29.9098 4.79698 29.9098 4.75633C29.8789 4.63438 29.8479 4.55308 29.7859 4.51243C29.7239 4.43113 29.662 4.39048 29.569 4.39048C29.4451 4.39048 29.3521 4.47178 29.2901 4.59373C29.2282 4.71568 29.1972 4.87828 29.1972 5.08153C29.1972 5.28478 29.2282 5.40673 29.2901 5.52868C29.3521 5.65062 29.4451 5.73192 29.569 5.73192C29.662 5.73192 29.7549 5.69127 29.8169 5.56933C29.8789 5.48803 29.9098 5.36608 29.9098 5.20348Z" fill="#2F2F2F"/>
<path d="M33.0071 5.04087C33.0071 5.32542 32.9451 5.56932 32.8212 5.77257C32.6973 5.97582 32.5114 6.05712 32.2945 6.05712C32.0776 6.05712 31.9226 5.97582 31.7677 5.77257C31.6438 5.56932 31.5818 5.36607 31.5818 5.08152C31.5818 4.79698 31.6438 4.55308 31.7677 4.34983C31.8916 4.14658 32.0776 4.06528 32.2945 4.06528C32.5114 4.06528 32.6663 4.14658 32.8212 4.34983C32.9451 4.55308 33.0071 4.75633 33.0071 5.04087ZM32.6973 5.08152C32.6973 4.91893 32.6663 4.75633 32.6043 4.63438C32.5423 4.47178 32.4494 4.39048 32.3254 4.39048C32.2015 4.39048 32.1085 4.47178 32.0156 4.63438C31.9536 4.75633 31.9226 4.91893 31.9226 5.08152C31.9226 5.24412 31.9536 5.40672 32.0156 5.52867C32.0776 5.69127 32.1705 5.77257 32.3254 5.77257C32.4494 5.77257 32.5423 5.69127 32.6043 5.52867C32.6663 5.40672 32.6973 5.24412 32.6973 5.08152Z" fill="#2F2F2F"/>
<path d="M34.7744 6.01639H34.4646V4.91885C34.4646 4.59366 34.3716 4.43106 34.1547 4.43106C34.0618 4.43106 33.9688 4.47171 33.9068 4.55301C33.8449 4.6343 33.8139 4.75625 33.8139 4.8782V6.01639H33.504V4.6343C33.504 4.47171 33.504 4.26846 33.504 4.10586H33.7829V4.39041C33.8139 4.30911 33.8758 4.22781 33.9378 4.14651C34.0308 4.06521 34.1237 4.02456 34.2477 4.02456C34.3716 4.02456 34.4955 4.06521 34.5885 4.18716C34.7124 4.30911 34.7434 4.55301 34.7434 4.83755V6.01639H34.7744V6.01639Z" fill="#2F2F2F"/>
<path d="M36.9417 4.43099H36.5699V5.36593C36.5699 5.60983 36.6318 5.73177 36.7558 5.73177C36.8178 5.73177 36.8487 5.73177 36.9107 5.73177V6.05697C36.8487 6.09762 36.7558 6.09762 36.6628 6.09762C36.5389 6.09762 36.4459 6.05697 36.353 5.93502C36.291 5.81307 36.26 5.65048 36.26 5.40658V4.43099H36.0431V4.10579H36.26V3.78059L36.5699 3.65864V4.14644H36.9417V4.43099Z" fill="#2F2F2F"/>
<path d="M38.6781 6.01647H38.3683V4.91893C38.3683 4.59373 38.2753 4.39048 38.0894 4.39048C37.9345 4.39048 37.8415 4.47178 37.7796 4.67503C37.7796 4.71568 37.7796 4.75633 37.7796 4.83763V5.97582H37.4697V3.25229H37.7796V4.39048C37.8725 4.18724 38.0274 4.06529 38.2134 4.06529C38.3373 4.06529 38.4612 4.10594 38.5542 4.22789C38.6781 4.39048 38.7091 4.59373 38.7091 4.87828C38.6781 4.87828 38.6781 6.01647 38.6781 6.01647Z" fill="#2F2F2F"/>
<path d="M40.4447 5.00012C40.4447 5.08142 40.4447 5.12207 40.4447 5.20337H39.4532C39.4532 5.40661 39.5152 5.52856 39.6081 5.65051C39.7011 5.73181 39.794 5.77246 39.918 5.77246C40.0729 5.77246 40.1968 5.73181 40.3208 5.69116L40.3827 5.97571C40.2588 6.05701 40.0729 6.09766 39.887 6.09766C39.6701 6.09766 39.4842 6.01636 39.3602 5.85376C39.2363 5.69116 39.1743 5.44726 39.1743 5.16272C39.1743 4.87817 39.2363 4.63427 39.3602 4.43102C39.4842 4.22777 39.6701 4.10583 39.856 4.10583C40.0729 4.10583 40.2278 4.22777 40.3208 4.43102C40.4137 4.55297 40.4447 4.75622 40.4447 5.00012ZM40.1349 4.87817C40.1349 4.75622 40.1039 4.63427 40.0729 4.55297C40.0109 4.43102 39.918 4.39037 39.825 4.39037C39.732 4.39037 39.6391 4.43102 39.5771 4.55297C39.5152 4.63427 39.4842 4.75622 39.4842 4.87817C39.4532 4.87817 40.1349 4.87817 40.1349 4.87817Z" fill="#2F2F2F"/>
</svg>
