<svg width="226" height="88" viewBox="0 0 226 88" fill="none" xmlns="http://www.w3.org/2000/svg">
<rect width="226" height="88" rx="44" fill="white"/>
<path d="M60.1978 42.7445C60.1978 38.334 63.6849 36.1287 63.9531 35.9909C61.9413 32.9586 58.7225 32.5451 57.6495 32.5451C54.9671 32.2695 52.4189 34.1991 51.0777 34.1991C49.7365 34.1991 47.5906 32.5451 45.4447 32.683C42.6282 32.683 39.9458 34.4748 38.4705 37.0935C35.3858 42.4688 37.6658 50.4629 40.6164 54.8734C42.0917 57.0787 43.8353 59.4218 45.9812 59.284C48.1271 59.1461 48.9318 57.9057 51.6142 57.9057C54.1624 57.9057 54.9671 59.284 57.2472 59.284C59.5272 59.284 61.0025 57.0787 62.4778 55.0113C64.2213 52.5304 64.8919 50.1873 64.8919 50.0494C64.7578 49.7738 60.3319 47.982 60.1978 42.7445Z" fill="#372AA4"/>
<path d="M55.9037 29.651C57.1107 28.1348 57.9154 26.0674 57.6472 24C55.9037 24.1378 53.8919 25.2404 52.5507 26.6187C51.4777 27.8592 50.5389 30.0644 50.8071 31.9941C52.8189 32.2697 54.6966 31.1671 55.9037 29.651Z" fill="#372AA4"/>
<path d="M96.5525 58.5803H93.5199L91.9377 53.2958H86.2681L84.6859 58.5803H81.7852L87.4548 40.559H90.8829L96.5525 58.5803ZM91.5422 51.1279L90.0918 46.3854C89.9599 45.8434 89.6962 44.7594 89.1688 42.9979C89.037 43.8109 88.7733 44.8949 88.3777 46.3854L86.7955 51.1279H91.5422Z" fill="#2F2F2F"/>
<path d="M111.186 51.9402C111.186 54.1081 110.659 55.8696 109.472 57.2246C108.417 58.3086 107.099 58.9861 105.648 58.9861C103.934 58.9861 102.747 58.3086 102.088 57.0891V63.9996H99.3194V49.9077C99.3194 48.5527 99.3194 47.0622 99.1875 45.5717H101.693L101.825 47.6042C102.747 46.1137 104.198 45.3007 106.044 45.3007C107.494 45.3007 108.813 45.8427 109.736 47.0622C110.659 48.2817 111.186 49.9077 111.186 51.9402ZM108.285 52.0757C108.285 50.8562 108.022 49.7722 107.494 48.9592C106.835 48.1462 106.044 47.7397 104.989 47.7397C104.33 47.7397 103.67 48.0107 103.143 48.4172C102.616 48.9592 102.22 49.5012 102.088 50.3142C101.956 50.7207 101.956 50.9917 101.956 51.1272V53.2951C101.956 54.2436 102.22 55.0566 102.747 55.7341C103.275 56.4116 104.066 56.6826 104.989 56.6826C106.044 56.6826 106.835 56.2761 107.494 55.4631C108.022 54.5146 108.285 53.4306 108.285 52.0757Z" fill="#2F2F2F"/>
<path d="M125.69 51.9406C125.69 54.1086 125.162 55.8701 123.976 57.225C122.921 58.309 121.602 58.9865 120.152 58.9865C118.438 58.9865 117.251 58.309 116.592 57.0895V64H113.823V49.9081C113.823 48.5531 113.823 47.0626 113.691 45.5721H116.197L116.328 47.6046C117.251 46.1141 118.702 45.3011 120.548 45.3011C121.998 45.3011 123.317 45.8431 124.24 47.0626C125.162 48.2821 125.69 49.9081 125.69 51.9406ZM122.789 52.0761C122.789 50.8566 122.525 49.7726 121.998 48.9596C121.339 48.1466 120.548 47.7401 119.493 47.7401C118.834 47.7401 118.174 48.0111 117.647 48.4176C117.12 48.9596 116.724 49.5016 116.592 50.3146C116.46 50.7211 116.46 50.9921 116.46 51.1276V53.2956C116.46 54.2441 116.724 55.0571 117.251 55.7346C117.779 56.4121 118.57 56.6831 119.493 56.6831C120.548 56.6831 121.339 56.2766 121.998 55.4636C122.525 54.5151 122.789 53.4311 122.789 52.0761Z" fill="#2F2F2F"/>
<path d="M141.905 53.5664C141.905 55.0569 141.378 56.4119 140.323 57.3604C139.136 58.4444 137.554 58.9864 135.576 58.9864C133.73 58.9864 132.148 58.5799 131.093 57.9024L131.752 55.4634C132.939 56.2764 134.389 56.6829 135.84 56.6829C136.895 56.6829 137.686 56.4119 138.345 56.0054C138.872 55.4634 139.268 54.9214 139.268 53.9729C139.268 53.2954 139.004 52.6179 138.477 52.0759C137.949 51.5339 137.158 51.1274 136.104 50.7209C133.071 49.5015 131.489 47.8755 131.489 45.572C131.489 44.0815 132.016 42.862 133.071 41.9135C134.126 40.965 135.576 40.5585 137.422 40.5585C139.004 40.5585 140.323 40.8295 141.378 41.3715L140.587 43.5395C139.532 42.9975 138.477 42.7265 137.29 42.7265C136.235 42.7265 135.576 42.9975 134.917 43.5395C134.389 43.946 134.258 44.488 134.258 45.1655C134.258 45.843 134.521 46.5205 135.049 46.927C135.576 47.3335 136.367 47.8755 137.554 48.282C139.004 48.9595 140.191 49.6369 140.85 50.4499C141.641 51.2629 141.905 52.3469 141.905 53.5664Z" fill="#2F2F2F"/>
<path d="M151.268 47.7394H148.235V54.1079C148.235 55.7339 148.762 56.5469 149.817 56.5469C150.345 56.5469 150.74 56.5469 151.004 56.4114L151.136 58.5793C150.608 58.8503 149.817 58.8503 148.894 58.8503C147.839 58.8503 146.916 58.4438 146.257 57.7663C145.598 57.0888 145.334 55.8694 145.334 54.2434V47.7394H143.488V45.5714H145.334V43.1325L148.103 42.3195V45.5714H151.136C151.268 45.5714 151.268 47.7394 151.268 47.7394Z" fill="#2F2F2F"/>
<path d="M165.245 51.9402C165.245 53.9726 164.717 55.5986 163.531 56.8181C162.344 58.1731 160.762 58.8506 158.916 58.8506C157.07 58.8506 155.619 58.1731 154.433 56.9536C153.246 55.7341 152.719 54.1081 152.719 52.2112C152.719 50.1787 153.246 48.5527 154.433 47.1977C155.619 45.9782 157.07 45.3007 159.048 45.3007C160.894 45.3007 162.344 45.9782 163.531 47.1977C164.717 48.4172 165.245 50.0432 165.245 51.9402ZM162.344 52.0757C162.344 50.8562 162.08 49.9077 161.553 48.9592C161.025 47.8752 160.102 47.4687 159.048 47.4687C157.861 47.4687 157.07 48.0107 156.411 48.9592C155.883 49.7722 155.619 50.8562 155.619 52.0757C155.619 53.2951 155.883 54.2436 156.411 55.1921C157.07 56.2761 157.861 56.6826 158.916 56.6826C159.971 56.6826 160.894 56.1406 161.421 55.0566C162.08 54.2436 162.344 53.2951 162.344 52.0757Z" fill="#2F2F2F"/>
<path d="M174.346 48.1466C174.082 48.1466 173.818 48.0111 173.423 48.0111C172.368 48.0111 171.708 48.4176 171.181 49.2306C170.654 49.9081 170.522 50.7211 170.522 51.8051V58.58H167.753V49.6371C167.753 48.1466 167.753 46.7916 167.621 45.5721H170.126L170.258 48.0111H170.39C170.654 47.1981 171.181 46.5206 171.84 45.9786C172.5 45.5721 173.159 45.3011 173.818 45.3011C174.082 45.3011 174.346 45.3011 174.477 45.3011C174.346 45.4366 174.346 48.1466 174.346 48.1466Z" fill="#2F2F2F"/>
<path d="M187.003 51.5332C187.003 52.0752 187.003 52.4817 186.871 52.8882H178.433C178.433 54.1076 178.828 55.1916 179.62 55.8691C180.279 56.4111 181.202 56.8176 182.388 56.8176C183.575 56.8176 184.762 56.5466 185.817 56.1401L186.212 58.1726C185.026 58.7146 183.575 58.9856 181.993 58.9856C180.015 58.9856 178.433 58.4436 177.378 57.2241C176.323 56.0046 175.664 54.5141 175.664 52.4817C175.664 50.5847 176.191 48.8232 177.246 47.6037C178.301 46.2487 179.751 45.5712 181.729 45.5712C183.575 45.5712 184.894 46.2487 185.817 47.6037C186.608 48.4167 187.003 49.9072 187.003 51.5332ZM184.234 50.7202C184.234 49.9072 184.103 49.0942 183.707 48.5522C183.18 47.7392 182.52 47.3327 181.466 47.3327C180.543 47.3327 179.751 47.7392 179.224 48.5522C178.697 49.2297 178.433 49.9072 178.433 50.8557L184.234 50.7202Z" fill="#2F2F2F"/>
<path d="M88.909 29.4481C88.909 31.0741 88.3816 32.2936 87.4587 33.1066C86.5357 33.7841 85.3491 34.1906 83.7668 34.1906C82.9757 34.1906 82.3165 34.1906 81.7891 34.0551V25.3832C82.5802 25.2477 83.3713 25.2477 84.1624 25.2477C85.6128 25.2477 86.7994 25.5187 87.5905 26.1962C88.5135 27.0092 88.909 28.0932 88.909 29.4481ZM87.4587 29.4481C87.4587 28.3642 87.195 27.6867 86.6676 27.0092C86.1402 26.4672 85.3491 26.1962 84.2942 26.1962C83.8987 26.1962 83.5031 26.1962 83.2394 26.3317V32.9711C83.3713 32.9711 83.7668 32.9711 84.1624 32.9711C85.2172 32.9711 86.0083 32.7001 86.6676 32.0226C87.3268 31.3451 87.4587 30.6676 87.4587 29.4481Z" fill="#2F2F2F"/>
<path d="M96.6863 30.8027C96.6863 31.7512 96.4226 32.5642 95.8952 33.2417C95.3677 33.9192 94.5766 34.1902 93.6537 34.1902C92.7307 34.1902 92.0715 33.9192 91.4122 33.2417C90.8848 32.5642 90.6211 31.8867 90.6211 30.9382C90.6211 29.9897 90.8848 29.1767 91.4122 28.4992C91.9396 27.8217 92.7307 27.5507 93.6537 27.5507C94.5766 27.5507 95.2359 27.8217 95.8952 28.4992C96.4226 29.1767 96.6863 29.8542 96.6863 30.8027ZM95.2359 30.9382C95.2359 30.3962 95.104 29.8542 94.8403 29.4477C94.5766 28.9057 94.1811 28.6347 93.6537 28.6347C93.1263 28.6347 92.7307 28.9057 92.3352 29.4477C92.0715 29.8542 91.9396 30.3962 91.9396 30.9382C91.9396 31.4802 92.0715 32.0222 92.3352 32.4287C92.5989 32.9707 92.9944 33.2417 93.6537 33.2417C94.1811 33.2417 94.5766 32.9707 94.8403 32.4287C95.104 32.0222 95.2359 31.4802 95.2359 30.9382Z" fill="#2F2F2F"/>
<path d="M107.106 27.6857L105.128 34.0542H103.809L103.018 31.3442C102.754 30.6667 102.623 29.9892 102.491 29.3117C102.359 29.9892 102.227 30.6667 101.963 31.3442L101.172 34.0542H99.8537L98.0078 27.6857H99.4582L100.117 30.6667C100.249 31.3442 100.381 32.0217 100.513 32.6992C100.645 32.1572 100.777 31.4797 101.04 30.6667L101.963 27.6857H103.15L103.941 30.6667C104.205 31.3442 104.337 32.1572 104.469 32.8347C104.6 32.1572 104.732 31.4797 104.864 30.6667L105.655 27.6857H107.106Z" fill="#2F2F2F"/>
<path d="M114.227 34.0546H112.909V30.3962C112.909 29.3122 112.513 28.7702 111.722 28.7702C111.326 28.7702 110.931 28.9057 110.667 29.1767C110.403 29.4477 110.272 29.8542 110.272 30.2607V34.0546H108.953V29.4477C108.953 28.9057 108.953 28.2282 108.953 27.6862H110.008V28.6347C110.14 28.3637 110.403 28.0927 110.667 27.8217C111.063 27.5507 111.458 27.4152 111.854 27.4152C112.381 27.4152 112.909 27.5507 113.304 27.9572C113.832 28.3637 113.963 29.1767 113.963 30.1252V34.0546H114.227V34.0546Z" fill="#2F2F2F"/>
<path d="M118.045 34.0549H116.727V24.841H118.045V34.0549Z" fill="#2F2F2F"/>
<path d="M126.225 30.8027C126.225 31.7512 125.962 32.5642 125.434 33.2417C124.907 33.9192 124.116 34.1902 123.193 34.1902C122.27 34.1902 121.611 33.9192 120.951 33.2417C120.424 32.5642 120.16 31.8867 120.16 30.9382C120.16 29.9897 120.424 29.1767 120.951 28.4992C121.479 27.8217 122.27 27.5507 123.193 27.5507C124.116 27.5507 124.775 27.8217 125.434 28.4992C125.962 29.1767 126.225 29.8542 126.225 30.8027ZM124.775 30.9382C124.775 30.3962 124.643 29.8542 124.379 29.4477C124.116 28.9057 123.72 28.6347 123.193 28.6347C122.665 28.6347 122.27 28.9057 121.874 29.4477C121.611 29.8542 121.479 30.3962 121.479 30.9382C121.479 31.4802 121.611 32.0222 121.874 32.4287C122.138 32.9707 122.533 33.2417 123.193 33.2417C123.72 33.2417 124.116 32.9707 124.379 32.4287C124.643 32.0222 124.775 31.4802 124.775 30.9382Z" fill="#2F2F2F"/>
<path d="M132.818 34.0547H131.631L131.499 33.3772C131.104 33.9192 130.445 34.1902 129.654 34.1902C129.126 34.1902 128.599 34.0547 128.203 33.6482C127.939 33.2417 127.676 32.8352 127.676 32.2932C127.676 31.4802 127.939 30.9382 128.599 30.5317C129.258 30.1252 130.181 29.8542 131.236 29.9897V29.8542C131.236 29.0412 130.84 28.6347 129.917 28.6347C129.258 28.6347 128.731 28.7702 128.335 29.0412L128.203 28.0927C128.731 27.6862 129.522 27.5507 130.313 27.5507C131.895 27.5507 132.686 28.3637 132.686 30.1252V32.4287C132.818 33.2417 132.818 33.7837 132.818 34.0547ZM131.368 31.8867V30.9382C129.785 30.9382 129.126 31.3447 129.126 32.1577C129.126 32.4287 129.258 32.6997 129.39 32.9707C129.522 33.1062 129.785 33.2417 130.049 33.2417C130.313 33.2417 130.577 33.1062 130.84 32.9707C131.104 32.8352 131.236 32.5642 131.368 32.1577C131.368 32.0222 131.368 32.0222 131.368 31.8867Z" fill="#2F2F2F"/>
<path d="M140.726 34.0549H139.54V32.9709C139.144 33.7839 138.485 34.1904 137.562 34.1904C136.771 34.1904 136.243 33.9194 135.716 33.2419C135.189 32.5644 134.925 31.8869 134.925 30.9384C134.925 29.8544 135.189 29.0414 135.716 28.364C136.243 27.822 136.903 27.4155 137.694 27.4155C138.485 27.4155 139.144 27.6865 139.408 28.2285V24.841H140.726V32.4289C140.594 32.9709 140.726 33.5129 140.726 34.0549ZM139.276 31.3449V30.2609C139.276 30.1254 139.276 29.9899 139.276 29.8544C139.144 29.4479 139.012 29.1769 138.749 29.0414C138.485 28.7704 138.221 28.6349 137.826 28.6349C137.298 28.6349 136.903 28.9059 136.639 29.3124C136.375 29.7189 136.243 30.2609 136.243 30.9384C136.243 31.6159 136.375 32.0224 136.639 32.4289C136.903 32.8354 137.298 33.1064 137.826 33.1064C138.221 33.1064 138.617 32.9709 138.88 32.5644C139.144 32.2934 139.276 31.8869 139.276 31.3449Z" fill="#2F2F2F"/>
<path d="M152.456 30.8029C152.456 31.7514 152.192 32.5644 151.665 33.2419C151.137 33.9194 150.346 34.1904 149.423 34.1904C148.5 34.1904 147.841 33.9194 147.182 33.2419C146.654 32.5644 146.391 31.8869 146.391 30.9384C146.391 29.9899 146.654 29.1769 147.182 28.4994C147.709 27.8219 148.5 27.5509 149.423 27.5509C150.346 27.5509 151.005 27.8219 151.665 28.4994C152.192 29.1769 152.456 29.8544 152.456 30.8029ZM151.137 30.9384C151.137 30.3964 151.005 29.8544 150.742 29.4479C150.478 28.9059 150.082 28.6349 149.555 28.6349C149.028 28.6349 148.632 28.9059 148.237 29.4479C147.973 29.8544 147.841 30.3964 147.841 30.9384C147.841 31.4804 147.973 32.0224 148.237 32.4289C148.5 32.9709 148.896 33.2419 149.555 33.2419C150.082 33.2419 150.478 32.9709 150.742 32.4289C151.005 32.0224 151.137 31.4804 151.137 30.9384Z" fill="#2F2F2F"/>
<path d="M159.976 34.0546H158.658V30.3962C158.658 29.3122 158.262 28.7702 157.339 28.7702C156.944 28.7702 156.548 28.9057 156.284 29.1767C156.021 29.4477 155.889 29.8542 155.889 30.2607V34.0546H154.57V29.4477C154.57 28.9057 154.57 28.2282 154.57 27.6862H155.757V28.6347C155.889 28.3637 156.153 28.0927 156.416 27.8217C156.812 27.5507 157.207 27.4152 157.735 27.4152C158.262 27.4152 158.79 27.5507 159.185 27.9572C159.713 28.3637 159.844 29.1767 159.844 30.1252V34.0546H159.976V34.0546Z" fill="#2F2F2F"/>
<path d="M169.199 28.77H167.616V31.8864C167.616 32.6994 167.88 33.1059 168.408 33.1059C168.671 33.1059 168.803 33.1059 169.067 33.1059V34.1899C168.803 34.3254 168.408 34.3254 168.012 34.3254C167.485 34.3254 167.089 34.1899 166.694 33.7834C166.43 33.3769 166.298 32.8349 166.298 32.0219V28.77H165.375V27.686H166.298V26.602L167.616 26.1955V27.8215H169.199V28.77Z" fill="#2F2F2F"/>
<path d="M176.588 34.0549H175.269V30.3964C175.269 29.3124 174.874 28.6349 174.083 28.6349C173.423 28.6349 173.028 28.9059 172.764 29.5834C172.764 29.7189 172.764 29.8544 172.764 30.1254V33.9194H171.446V24.841H172.764V28.6349C173.16 27.9575 173.819 27.551 174.61 27.551C175.137 27.551 175.665 27.6865 176.06 28.093C176.588 28.6349 176.72 29.3124 176.72 30.2609C176.588 30.2609 176.588 34.0549 176.588 34.0549Z" fill="#2F2F2F"/>
<path d="M184.105 30.6671C184.105 30.9381 184.105 31.0736 184.105 31.3446H179.886C179.886 32.022 180.15 32.4285 180.545 32.835C180.941 33.106 181.336 33.2415 181.864 33.2415C182.523 33.2415 183.05 33.106 183.578 32.9705L183.841 33.919C183.314 34.19 182.523 34.3255 181.732 34.3255C180.809 34.3255 180.018 34.0545 179.49 33.5125C178.963 32.9705 178.699 32.1575 178.699 31.2091C178.699 30.2606 178.963 29.4476 179.49 28.7701C180.018 28.0926 180.809 27.6861 181.6 27.6861C182.523 27.6861 183.182 28.0926 183.578 28.7701C183.973 29.1766 184.105 29.8541 184.105 30.6671ZM182.787 30.2606C182.787 29.8541 182.655 29.4476 182.523 29.1766C182.259 28.7701 181.864 28.6346 181.468 28.6346C181.073 28.6346 180.677 28.7701 180.413 29.1766C180.15 29.4476 180.018 29.8541 180.018 30.2606C179.886 30.2606 182.787 30.2606 182.787 30.2606Z" fill="#2F2F2F"/>
<rect width="226" height="88" rx="10" fill="white"/>
<path d="M60.1978 42.7445C60.1978 38.334 63.6849 36.1287 63.9531 35.9909C61.9413 32.9586 58.7225 32.5451 57.6495 32.5451C54.9671 32.2695 52.4189 34.1991 51.0777 34.1991C49.7365 34.1991 47.5906 32.5451 45.4447 32.683C42.6282 32.683 39.9458 34.4748 38.4705 37.0935C35.3858 42.4688 37.6658 50.4629 40.6164 54.8734C42.0917 57.0787 43.8353 59.4218 45.9812 59.284C48.1271 59.1461 48.9318 57.9057 51.6142 57.9057C54.1624 57.9057 54.9671 59.284 57.2472 59.284C59.5272 59.284 61.0025 57.0787 62.4778 55.0113C64.2213 52.5304 64.8919 50.1873 64.8919 50.0494C64.7578 49.7738 60.3319 47.982 60.1978 42.7445Z" fill="#372AA4"/>
<path d="M55.9037 29.651C57.1107 28.1348 57.9154 26.0674 57.6472 24C55.9037 24.1378 53.8919 25.2404 52.5507 26.6187C51.4777 27.8592 50.5389 30.0644 50.8071 31.9941C52.8189 32.2697 54.6966 31.1671 55.9037 29.651Z" fill="#372AA4"/>
<path d="M96.5525 58.5803H93.5199L91.9377 53.2958H86.2681L84.6859 58.5803H81.7852L87.4548 40.559H90.8829L96.5525 58.5803ZM91.5422 51.1279L90.0918 46.3854C89.9599 45.8434 89.6962 44.7594 89.1688 42.9979C89.037 43.8109 88.7733 44.8949 88.3777 46.3854L86.7955 51.1279H91.5422Z" fill="#2F2F2F"/>
<path d="M111.186 51.9402C111.186 54.1081 110.659 55.8696 109.472 57.2246C108.417 58.3086 107.099 58.9861 105.648 58.9861C103.934 58.9861 102.747 58.3086 102.088 57.0891V63.9996H99.3194V49.9077C99.3194 48.5527 99.3194 47.0622 99.1875 45.5717H101.693L101.825 47.6042C102.747 46.1137 104.198 45.3007 106.044 45.3007C107.494 45.3007 108.813 45.8427 109.736 47.0622C110.659 48.2817 111.186 49.9077 111.186 51.9402ZM108.285 52.0757C108.285 50.8562 108.022 49.7722 107.494 48.9592C106.835 48.1462 106.044 47.7397 104.989 47.7397C104.33 47.7397 103.67 48.0107 103.143 48.4172C102.616 48.9592 102.22 49.5012 102.088 50.3142C101.956 50.7207 101.956 50.9917 101.956 51.1272V53.2951C101.956 54.2436 102.22 55.0566 102.747 55.7341C103.275 56.4116 104.066 56.6826 104.989 56.6826C106.044 56.6826 106.835 56.2761 107.494 55.4631C108.022 54.5146 108.285 53.4306 108.285 52.0757Z" fill="#2F2F2F"/>
<path d="M125.69 51.9406C125.69 54.1086 125.162 55.8701 123.976 57.225C122.921 58.309 121.602 58.9865 120.152 58.9865C118.438 58.9865 117.251 58.309 116.592 57.0895V64H113.823V49.9081C113.823 48.5531 113.823 47.0626 113.691 45.5721H116.197L116.328 47.6046C117.251 46.1141 118.702 45.3011 120.548 45.3011C121.998 45.3011 123.317 45.8431 124.24 47.0626C125.162 48.2821 125.69 49.9081 125.69 51.9406ZM122.789 52.0761C122.789 50.8566 122.525 49.7726 121.998 48.9596C121.339 48.1466 120.548 47.7401 119.493 47.7401C118.834 47.7401 118.174 48.0111 117.647 48.4176C117.12 48.9596 116.724 49.5016 116.592 50.3146C116.46 50.7211 116.46 50.9921 116.46 51.1276V53.2956C116.46 54.2441 116.724 55.0571 117.251 55.7346C117.779 56.4121 118.57 56.6831 119.493 56.6831C120.548 56.6831 121.339 56.2766 121.998 55.4636C122.525 54.5151 122.789 53.4311 122.789 52.0761Z" fill="#2F2F2F"/>
<path d="M141.905 53.5664C141.905 55.0569 141.378 56.4119 140.323 57.3604C139.136 58.4444 137.554 58.9864 135.576 58.9864C133.73 58.9864 132.148 58.5799 131.093 57.9024L131.752 55.4634C132.939 56.2764 134.389 56.6829 135.84 56.6829C136.895 56.6829 137.686 56.4119 138.345 56.0054C138.872 55.4634 139.268 54.9214 139.268 53.9729C139.268 53.2954 139.004 52.6179 138.477 52.0759C137.949 51.5339 137.158 51.1274 136.104 50.7209C133.071 49.5015 131.489 47.8755 131.489 45.572C131.489 44.0815 132.016 42.862 133.071 41.9135C134.126 40.965 135.576 40.5585 137.422 40.5585C139.004 40.5585 140.323 40.8295 141.378 41.3715L140.587 43.5395C139.532 42.9975 138.477 42.7265 137.29 42.7265C136.235 42.7265 135.576 42.9975 134.917 43.5395C134.389 43.946 134.258 44.488 134.258 45.1655C134.258 45.843 134.521 46.5205 135.049 46.927C135.576 47.3335 136.367 47.8755 137.554 48.282C139.004 48.9595 140.191 49.6369 140.85 50.4499C141.641 51.2629 141.905 52.3469 141.905 53.5664Z" fill="#2F2F2F"/>
<path d="M151.268 47.7394H148.235V54.1079C148.235 55.7339 148.762 56.5469 149.817 56.5469C150.345 56.5469 150.74 56.5469 151.004 56.4114L151.136 58.5793C150.608 58.8503 149.817 58.8503 148.894 58.8503C147.839 58.8503 146.916 58.4438 146.257 57.7663C145.598 57.0888 145.334 55.8694 145.334 54.2434V47.7394H143.488V45.5714H145.334V43.1325L148.103 42.3195V45.5714H151.136C151.268 45.5714 151.268 47.7394 151.268 47.7394Z" fill="#2F2F2F"/>
<path d="M165.245 51.9402C165.245 53.9726 164.717 55.5986 163.531 56.8181C162.344 58.1731 160.762 58.8506 158.916 58.8506C157.07 58.8506 155.619 58.1731 154.433 56.9536C153.246 55.7341 152.719 54.1081 152.719 52.2112C152.719 50.1787 153.246 48.5527 154.433 47.1977C155.619 45.9782 157.07 45.3007 159.048 45.3007C160.894 45.3007 162.344 45.9782 163.531 47.1977C164.717 48.4172 165.245 50.0432 165.245 51.9402ZM162.344 52.0757C162.344 50.8562 162.08 49.9077 161.553 48.9592C161.025 47.8752 160.102 47.4687 159.048 47.4687C157.861 47.4687 157.07 48.0107 156.411 48.9592C155.883 49.7722 155.619 50.8562 155.619 52.0757C155.619 53.2951 155.883 54.2436 156.411 55.1921C157.07 56.2761 157.861 56.6826 158.916 56.6826C159.971 56.6826 160.894 56.1406 161.421 55.0566C162.08 54.2436 162.344 53.2951 162.344 52.0757Z" fill="#2F2F2F"/>
<path d="M174.346 48.1466C174.082 48.1466 173.818 48.0111 173.423 48.0111C172.368 48.0111 171.708 48.4176 171.181 49.2306C170.654 49.9081 170.522 50.7211 170.522 51.8051V58.58H167.753V49.6371C167.753 48.1466 167.753 46.7916 167.621 45.5721H170.126L170.258 48.0111H170.39C170.654 47.1981 171.181 46.5206 171.84 45.9786C172.5 45.5721 173.159 45.3011 173.818 45.3011C174.082 45.3011 174.346 45.3011 174.477 45.3011C174.346 45.4366 174.346 48.1466 174.346 48.1466Z" fill="#2F2F2F"/>
<path d="M187.003 51.5332C187.003 52.0752 187.003 52.4817 186.871 52.8882H178.433C178.433 54.1076 178.828 55.1916 179.62 55.8691C180.279 56.4111 181.202 56.8176 182.388 56.8176C183.575 56.8176 184.762 56.5466 185.817 56.1401L186.212 58.1726C185.026 58.7146 183.575 58.9856 181.993 58.9856C180.015 58.9856 178.433 58.4436 177.378 57.2241C176.323 56.0046 175.664 54.5141 175.664 52.4817C175.664 50.5847 176.191 48.8232 177.246 47.6037C178.301 46.2487 179.751 45.5712 181.729 45.5712C183.575 45.5712 184.894 46.2487 185.817 47.6037C186.608 48.4167 187.003 49.9072 187.003 51.5332ZM184.234 50.7202C184.234 49.9072 184.103 49.0942 183.707 48.5522C183.18 47.7392 182.52 47.3327 181.466 47.3327C180.543 47.3327 179.751 47.7392 179.224 48.5522C178.697 49.2297 178.433 49.9072 178.433 50.8557L184.234 50.7202Z" fill="#2F2F2F"/>
<path d="M88.909 29.4481C88.909 31.0741 88.3816 32.2936 87.4587 33.1066C86.5357 33.7841 85.3491 34.1906 83.7668 34.1906C82.9757 34.1906 82.3165 34.1906 81.7891 34.0551V25.3832C82.5802 25.2477 83.3713 25.2477 84.1624 25.2477C85.6128 25.2477 86.7994 25.5187 87.5905 26.1962C88.5135 27.0092 88.909 28.0932 88.909 29.4481ZM87.4587 29.4481C87.4587 28.3642 87.195 27.6867 86.6676 27.0092C86.1402 26.4672 85.3491 26.1962 84.2942 26.1962C83.8987 26.1962 83.5031 26.1962 83.2394 26.3317V32.9711C83.3713 32.9711 83.7668 32.9711 84.1624 32.9711C85.2172 32.9711 86.0083 32.7001 86.6676 32.0226C87.3268 31.3451 87.4587 30.6676 87.4587 29.4481Z" fill="#2F2F2F"/>
<path d="M96.6863 30.8027C96.6863 31.7512 96.4226 32.5642 95.8952 33.2417C95.3677 33.9192 94.5766 34.1902 93.6537 34.1902C92.7307 34.1902 92.0715 33.9192 91.4122 33.2417C90.8848 32.5642 90.6211 31.8867 90.6211 30.9382C90.6211 29.9897 90.8848 29.1767 91.4122 28.4992C91.9396 27.8217 92.7307 27.5507 93.6537 27.5507C94.5766 27.5507 95.2359 27.8217 95.8952 28.4992C96.4226 29.1767 96.6863 29.8542 96.6863 30.8027ZM95.2359 30.9382C95.2359 30.3962 95.104 29.8542 94.8403 29.4477C94.5766 28.9057 94.1811 28.6347 93.6537 28.6347C93.1263 28.6347 92.7307 28.9057 92.3352 29.4477C92.0715 29.8542 91.9396 30.3962 91.9396 30.9382C91.9396 31.4802 92.0715 32.0222 92.3352 32.4287C92.5989 32.9707 92.9944 33.2417 93.6537 33.2417C94.1811 33.2417 94.5766 32.9707 94.8403 32.4287C95.104 32.0222 95.2359 31.4802 95.2359 30.9382Z" fill="#2F2F2F"/>
<path d="M107.106 27.6857L105.128 34.0542H103.809L103.018 31.3442C102.754 30.6667 102.623 29.9892 102.491 29.3117C102.359 29.9892 102.227 30.6667 101.963 31.3442L101.172 34.0542H99.8537L98.0078 27.6857H99.4582L100.117 30.6667C100.249 31.3442 100.381 32.0217 100.513 32.6992C100.645 32.1572 100.777 31.4797 101.04 30.6667L101.963 27.6857H103.15L103.941 30.6667C104.205 31.3442 104.337 32.1572 104.469 32.8347C104.6 32.1572 104.732 31.4797 104.864 30.6667L105.655 27.6857H107.106Z" fill="#2F2F2F"/>
<path d="M114.227 34.0546H112.909V30.3962C112.909 29.3122 112.513 28.7702 111.722 28.7702C111.326 28.7702 110.931 28.9057 110.667 29.1767C110.403 29.4477 110.272 29.8542 110.272 30.2607V34.0546H108.953V29.4477C108.953 28.9057 108.953 28.2282 108.953 27.6862H110.008V28.6347C110.14 28.3637 110.403 28.0927 110.667 27.8217C111.063 27.5507 111.458 27.4152 111.854 27.4152C112.381 27.4152 112.909 27.5507 113.304 27.9572C113.832 28.3637 113.963 29.1767 113.963 30.1252V34.0546H114.227V34.0546Z" fill="#2F2F2F"/>
<path d="M118.045 34.0549H116.727V24.841H118.045V34.0549Z" fill="#2F2F2F"/>
<path d="M126.225 30.8027C126.225 31.7512 125.962 32.5642 125.434 33.2417C124.907 33.9192 124.116 34.1902 123.193 34.1902C122.27 34.1902 121.611 33.9192 120.951 33.2417C120.424 32.5642 120.16 31.8867 120.16 30.9382C120.16 29.9897 120.424 29.1767 120.951 28.4992C121.479 27.8217 122.27 27.5507 123.193 27.5507C124.116 27.5507 124.775 27.8217 125.434 28.4992C125.962 29.1767 126.225 29.8542 126.225 30.8027ZM124.775 30.9382C124.775 30.3962 124.643 29.8542 124.379 29.4477C124.116 28.9057 123.72 28.6347 123.193 28.6347C122.665 28.6347 122.27 28.9057 121.874 29.4477C121.611 29.8542 121.479 30.3962 121.479 30.9382C121.479 31.4802 121.611 32.0222 121.874 32.4287C122.138 32.9707 122.533 33.2417 123.193 33.2417C123.72 33.2417 124.116 32.9707 124.379 32.4287C124.643 32.0222 124.775 31.4802 124.775 30.9382Z" fill="#2F2F2F"/>
<path d="M132.818 34.0547H131.631L131.499 33.3772C131.104 33.9192 130.445 34.1902 129.654 34.1902C129.126 34.1902 128.599 34.0547 128.203 33.6482C127.939 33.2417 127.676 32.8352 127.676 32.2932C127.676 31.4802 127.939 30.9382 128.599 30.5317C129.258 30.1252 130.181 29.8542 131.236 29.9897V29.8542C131.236 29.0412 130.84 28.6347 129.917 28.6347C129.258 28.6347 128.731 28.7702 128.335 29.0412L128.203 28.0927C128.731 27.6862 129.522 27.5507 130.313 27.5507C131.895 27.5507 132.686 28.3637 132.686 30.1252V32.4287C132.818 33.2417 132.818 33.7837 132.818 34.0547ZM131.368 31.8867V30.9382C129.785 30.9382 129.126 31.3447 129.126 32.1577C129.126 32.4287 129.258 32.6997 129.39 32.9707C129.522 33.1062 129.785 33.2417 130.049 33.2417C130.313 33.2417 130.577 33.1062 130.84 32.9707C131.104 32.8352 131.236 32.5642 131.368 32.1577C131.368 32.0222 131.368 32.0222 131.368 31.8867Z" fill="#2F2F2F"/>
<path d="M140.726 34.0549H139.54V32.9709C139.144 33.7839 138.485 34.1904 137.562 34.1904C136.771 34.1904 136.243 33.9194 135.716 33.2419C135.189 32.5644 134.925 31.8869 134.925 30.9384C134.925 29.8544 135.189 29.0414 135.716 28.364C136.243 27.822 136.903 27.4155 137.694 27.4155C138.485 27.4155 139.144 27.6865 139.408 28.2285V24.841H140.726V32.4289C140.594 32.9709 140.726 33.5129 140.726 34.0549ZM139.276 31.3449V30.2609C139.276 30.1254 139.276 29.9899 139.276 29.8544C139.144 29.4479 139.012 29.1769 138.749 29.0414C138.485 28.7704 138.221 28.6349 137.826 28.6349C137.298 28.6349 136.903 28.9059 136.639 29.3124C136.375 29.7189 136.243 30.2609 136.243 30.9384C136.243 31.6159 136.375 32.0224 136.639 32.4289C136.903 32.8354 137.298 33.1064 137.826 33.1064C138.221 33.1064 138.617 32.9709 138.88 32.5644C139.144 32.2934 139.276 31.8869 139.276 31.3449Z" fill="#2F2F2F"/>
<path d="M152.456 30.8029C152.456 31.7514 152.192 32.5644 151.665 33.2419C151.137 33.9194 150.346 34.1904 149.423 34.1904C148.5 34.1904 147.841 33.9194 147.182 33.2419C146.654 32.5644 146.391 31.8869 146.391 30.9384C146.391 29.9899 146.654 29.1769 147.182 28.4994C147.709 27.8219 148.5 27.5509 149.423 27.5509C150.346 27.5509 151.005 27.8219 151.665 28.4994C152.192 29.1769 152.456 29.8544 152.456 30.8029ZM151.137 30.9384C151.137 30.3964 151.005 29.8544 150.742 29.4479C150.478 28.9059 150.082 28.6349 149.555 28.6349C149.028 28.6349 148.632 28.9059 148.237 29.4479C147.973 29.8544 147.841 30.3964 147.841 30.9384C147.841 31.4804 147.973 32.0224 148.237 32.4289C148.5 32.9709 148.896 33.2419 149.555 33.2419C150.082 33.2419 150.478 32.9709 150.742 32.4289C151.005 32.0224 151.137 31.4804 151.137 30.9384Z" fill="#2F2F2F"/>
<path d="M159.976 34.0546H158.658V30.3962C158.658 29.3122 158.262 28.7702 157.339 28.7702C156.944 28.7702 156.548 28.9057 156.284 29.1767C156.021 29.4477 155.889 29.8542 155.889 30.2607V34.0546H154.57V29.4477C154.57 28.9057 154.57 28.2282 154.57 27.6862H155.757V28.6347C155.889 28.3637 156.153 28.0927 156.416 27.8217C156.812 27.5507 157.207 27.4152 157.735 27.4152C158.262 27.4152 158.79 27.5507 159.185 27.9572C159.713 28.3637 159.844 29.1767 159.844 30.1252V34.0546H159.976V34.0546Z" fill="#2F2F2F"/>
<path d="M169.199 28.77H167.616V31.8864C167.616 32.6994 167.88 33.1059 168.408 33.1059C168.671 33.1059 168.803 33.1059 169.067 33.1059V34.1899C168.803 34.3254 168.408 34.3254 168.012 34.3254C167.485 34.3254 167.089 34.1899 166.694 33.7834C166.43 33.3769 166.298 32.8349 166.298 32.0219V28.77H165.375V27.686H166.298V26.602L167.616 26.1955V27.8215H169.199V28.77Z" fill="#2F2F2F"/>
<path d="M176.588 34.0549H175.269V30.3964C175.269 29.3124 174.874 28.6349 174.083 28.6349C173.423 28.6349 173.028 28.9059 172.764 29.5834C172.764 29.7189 172.764 29.8544 172.764 30.1254V33.9194H171.446V24.841H172.764V28.6349C173.16 27.9575 173.819 27.551 174.61 27.551C175.137 27.551 175.665 27.6865 176.06 28.093C176.588 28.6349 176.72 29.3124 176.72 30.2609C176.588 30.2609 176.588 34.0549 176.588 34.0549Z" fill="#2F2F2F"/>
<path d="M184.105 30.6671C184.105 30.9381 184.105 31.0736 184.105 31.3446H179.886C179.886 32.022 180.15 32.4285 180.545 32.835C180.941 33.106 181.336 33.2415 181.864 33.2415C182.523 33.2415 183.05 33.106 183.578 32.9705L183.841 33.919C183.314 34.19 182.523 34.3255 181.732 34.3255C180.809 34.3255 180.018 34.0545 179.49 33.5125C178.963 32.9705 178.699 32.1575 178.699 31.2091C178.699 30.2606 178.963 29.4476 179.49 28.7701C180.018 28.0926 180.809 27.6861 181.6 27.6861C182.523 27.6861 183.182 28.0926 183.578 28.7701C183.973 29.1766 184.105 29.8541 184.105 30.6671ZM182.787 30.2606C182.787 29.8541 182.655 29.4476 182.523 29.1766C182.259 28.7701 181.864 28.6346 181.468 28.6346C181.073 28.6346 180.677 28.7701 180.413 29.1766C180.15 29.4476 180.018 29.8541 180.018 30.2606C179.886 30.2606 182.787 30.2606 182.787 30.2606Z" fill="#2F2F2F"/>
</svg>
