<svg width="280" height="80" viewBox="0 0 280 80" fill="none" xmlns="http://www.w3.org/2000/svg">
<rect width="280" height="80" rx="10" fill="white"/>
<path d="M71.1978 42.7445C71.1978 38.334 74.6849 36.1287 74.9531 35.9909C72.9413 32.9586 69.7225 32.5451 68.6495 32.5451C65.9671 32.2695 63.4189 34.1991 62.0777 34.1991C60.7365 34.1991 58.5906 32.5451 56.4447 32.683C53.6282 32.683 50.9458 34.4748 49.4705 37.0935C46.3858 42.4688 48.6658 50.4629 51.6164 54.8734C53.0917 57.0787 54.8353 59.4218 56.9812 59.284C59.1271 59.1461 59.9318 57.9057 62.6142 57.9057C65.1624 57.9057 65.9671 59.284 68.2472 59.284C70.5272 59.284 72.0025 57.0787 73.4778 55.0113C75.2213 52.5304 75.8919 50.1873 75.8919 50.0494C75.7578 49.7738 71.3319 47.982 71.1978 42.7445Z" fill="#372AA4"/>
<path d="M66.9036 29.651C68.1107 28.1348 68.9154 26.0674 68.6472 24C66.9037 24.1378 64.8919 25.2404 63.5507 26.6187C62.4777 27.8592 61.5389 30.0644 61.8071 31.9941C63.8189 32.2697 65.6966 31.1671 66.9036 29.651Z" fill="#372AA4"/>
<path d="M107.553 58.5803H104.52L102.938 53.2958H97.2681L95.6859 58.5803H92.7852L98.4548 40.559H101.883L107.553 58.5803ZM102.542 51.1279L101.092 46.3854C100.96 45.8434 100.696 44.7594 100.169 42.9979C100.037 43.8109 99.7733 44.8949 99.3777 46.3854L97.7955 51.1279H102.542Z" fill="#2F2F2F"/>
<path d="M122.186 51.9402C122.186 54.1081 121.659 55.8696 120.472 57.2246C119.417 58.3086 118.099 58.9861 116.648 58.9861C114.934 58.9861 113.747 58.3086 113.088 57.0891V63.9996H110.319V49.9077C110.319 48.5527 110.319 47.0622 110.188 45.5717H112.693L112.825 47.6042C113.747 46.1137 115.198 45.3007 117.044 45.3007C118.494 45.3007 119.813 45.8427 120.736 47.0622C121.659 48.2817 122.186 49.9077 122.186 51.9402ZM119.285 52.0757C119.285 50.8562 119.022 49.7722 118.494 48.9592C117.835 48.1462 117.044 47.7397 115.989 47.7397C115.33 47.7397 114.67 48.0107 114.143 48.4172C113.616 48.9592 113.22 49.5012 113.088 50.3142C112.956 50.7207 112.956 50.9917 112.956 51.1272V53.2951C112.956 54.2436 113.22 55.0566 113.747 55.7341C114.275 56.4116 115.066 56.6826 115.989 56.6826C117.044 56.6826 117.835 56.2761 118.494 55.4631C119.022 54.5146 119.285 53.4306 119.285 52.0757Z" fill="#2F2F2F"/>
<path d="M136.69 51.9406C136.69 54.1086 136.162 55.8701 134.976 57.225C133.921 58.309 132.602 58.9865 131.152 58.9865C129.438 58.9865 128.251 58.309 127.592 57.0896V64H124.823V49.9081C124.823 48.5531 124.823 47.0626 124.691 45.5721H127.197L127.328 47.6046C128.251 46.1141 129.702 45.3011 131.548 45.3011C132.998 45.3011 134.317 45.8431 135.24 47.0626C136.162 48.2821 136.69 49.9081 136.69 51.9406ZM133.789 52.0761C133.789 50.8566 133.525 49.7726 132.998 48.9596C132.339 48.1466 131.548 47.7401 130.493 47.7401C129.834 47.7401 129.174 48.0111 128.647 48.4176C128.12 48.9596 127.724 49.5016 127.592 50.3146C127.46 50.7211 127.46 50.9921 127.46 51.1276V53.2956C127.46 54.2441 127.724 55.0571 128.251 55.7346C128.779 56.4121 129.57 56.6831 130.493 56.6831C131.548 56.6831 132.339 56.2766 132.998 55.4636C133.525 54.5151 133.789 53.4311 133.789 52.0761Z" fill="#2F2F2F"/>
<path d="M152.905 53.5664C152.905 55.0569 152.378 56.4119 151.323 57.3604C150.136 58.4444 148.554 58.9864 146.576 58.9864C144.73 58.9864 143.148 58.5799 142.093 57.9024L142.752 55.4634C143.939 56.2764 145.389 56.6829 146.84 56.6829C147.895 56.6829 148.686 56.4119 149.345 56.0054C149.872 55.4634 150.268 54.9214 150.268 53.9729C150.268 53.2954 150.004 52.6179 149.477 52.0759C148.949 51.5339 148.158 51.1274 147.104 50.7209C144.071 49.5015 142.489 47.8755 142.489 45.572C142.489 44.0815 143.016 42.862 144.071 41.9135C145.126 40.965 146.576 40.5585 148.422 40.5585C150.004 40.5585 151.323 40.8295 152.378 41.3715L151.587 43.5395C150.532 42.9975 149.477 42.7265 148.29 42.7265C147.235 42.7265 146.576 42.9975 145.917 43.5395C145.389 43.946 145.258 44.488 145.258 45.1655C145.258 45.843 145.521 46.5205 146.049 46.927C146.576 47.3335 147.367 47.8755 148.554 48.282C150.004 48.9595 151.191 49.6369 151.85 50.4499C152.641 51.2629 152.905 52.3469 152.905 53.5664Z" fill="#2F2F2F"/>
<path d="M162.268 47.7394H159.235V54.1079C159.235 55.7339 159.762 56.5469 160.817 56.5469C161.345 56.5469 161.74 56.5469 162.004 56.4114L162.136 58.5793C161.608 58.8503 160.817 58.8503 159.894 58.8503C158.839 58.8503 157.916 58.4438 157.257 57.7663C156.598 57.0888 156.334 55.8694 156.334 54.2434V47.7394H154.488V45.5714H156.334V43.1325L159.103 42.3195V45.5714H162.136C162.268 45.5714 162.268 47.7394 162.268 47.7394Z" fill="#2F2F2F"/>
<path d="M176.245 51.9402C176.245 53.9726 175.717 55.5986 174.531 56.8181C173.344 58.1731 171.762 58.8506 169.916 58.8506C168.07 58.8506 166.619 58.1731 165.433 56.9536C164.246 55.7341 163.719 54.1081 163.719 52.2112C163.719 50.1787 164.246 48.5527 165.433 47.1977C166.619 45.9782 168.07 45.3007 170.048 45.3007C171.894 45.3007 173.344 45.9782 174.531 47.1977C175.717 48.4172 176.245 50.0432 176.245 51.9402ZM173.344 52.0757C173.344 50.8562 173.08 49.9077 172.553 48.9592C172.025 47.8752 171.102 47.4687 170.048 47.4687C168.861 47.4687 168.07 48.0107 167.411 48.9592C166.883 49.7722 166.619 50.8562 166.619 52.0757C166.619 53.2951 166.883 54.2436 167.411 55.1921C168.07 56.2761 168.861 56.6826 169.916 56.6826C170.971 56.6826 171.894 56.1406 172.421 55.0566C173.08 54.2436 173.344 53.2951 173.344 52.0757Z" fill="#2F2F2F"/>
<path d="M185.346 48.1466C185.082 48.1466 184.818 48.0111 184.423 48.0111C183.368 48.0111 182.708 48.4176 182.181 49.2306C181.654 49.9081 181.522 50.7211 181.522 51.8051V58.58H178.753V49.6371C178.753 48.1466 178.753 46.7916 178.621 45.5721H181.126L181.258 48.0111H181.39C181.654 47.1981 182.181 46.5206 182.84 45.9786C183.5 45.5721 184.159 45.3011 184.818 45.3011C185.082 45.3011 185.346 45.3011 185.477 45.3011C185.346 45.4366 185.346 48.1466 185.346 48.1466Z" fill="#2F2F2F"/>
<path d="M198.003 51.5332C198.003 52.0752 198.003 52.4817 197.871 52.8882H189.433C189.433 54.1076 189.828 55.1916 190.62 55.8691C191.279 56.4111 192.202 56.8176 193.388 56.8176C194.575 56.8176 195.762 56.5466 196.817 56.1401L197.212 58.1726C196.026 58.7146 194.575 58.9856 192.993 58.9856C191.015 58.9856 189.433 58.4436 188.378 57.2241C187.323 56.0046 186.664 54.5141 186.664 52.4817C186.664 50.5847 187.191 48.8232 188.246 47.6037C189.301 46.2487 190.751 45.5712 192.729 45.5712C194.575 45.5712 195.894 46.2487 196.817 47.6037C197.608 48.4167 198.003 49.9072 198.003 51.5332ZM195.234 50.7202C195.234 49.9072 195.103 49.0942 194.707 48.5522C194.18 47.7392 193.52 47.3327 192.466 47.3327C191.543 47.3327 190.751 47.7392 190.224 48.5522C189.697 49.2297 189.433 49.9072 189.433 50.8557L195.234 50.7202Z" fill="#2F2F2F"/>
<path d="M99.909 29.4482C99.909 31.0741 99.3816 32.2936 98.4587 33.1066C97.5357 33.7841 96.3491 34.1906 94.7668 34.1906C93.9757 34.1906 93.3165 34.1906 92.7891 34.0551V25.3832C93.5802 25.2477 94.3713 25.2477 95.1624 25.2477C96.6128 25.2477 97.7994 25.5187 98.5905 26.1962C99.5135 27.0092 99.909 28.0932 99.909 29.4482ZM98.4587 29.4482C98.4587 28.3642 98.195 27.6867 97.6676 27.0092C97.1402 26.4672 96.3491 26.1962 95.2942 26.1962C94.8987 26.1962 94.5031 26.1962 94.2394 26.3317V32.9711C94.3713 32.9711 94.7668 32.9711 95.1624 32.9711C96.2172 32.9711 97.0083 32.7001 97.6676 32.0226C98.3268 31.3451 98.4587 30.6676 98.4587 29.4482Z" fill="#2F2F2F"/>
<path d="M107.686 30.8027C107.686 31.7512 107.423 32.5642 106.895 33.2417C106.368 33.9192 105.577 34.1902 104.654 34.1902C103.731 34.1902 103.071 33.9192 102.412 33.2417C101.885 32.5642 101.621 31.8867 101.621 30.9382C101.621 29.9897 101.885 29.1767 102.412 28.4992C102.94 27.8217 103.731 27.5507 104.654 27.5507C105.577 27.5507 106.236 27.8217 106.895 28.4992C107.423 29.1767 107.686 29.8542 107.686 30.8027ZM106.236 30.9382C106.236 30.3962 106.104 29.8542 105.84 29.4477C105.577 28.9057 105.181 28.6347 104.654 28.6347C104.126 28.6347 103.731 28.9057 103.335 29.4477C103.071 29.8542 102.94 30.3962 102.94 30.9382C102.94 31.4802 103.071 32.0222 103.335 32.4287C103.599 32.9707 103.994 33.2417 104.654 33.2417C105.181 33.2417 105.577 32.9707 105.84 32.4287C106.104 32.0222 106.236 31.4802 106.236 30.9382Z" fill="#2F2F2F"/>
<path d="M118.106 27.6857L116.128 34.0542H114.809L114.018 31.3442C113.754 30.6667 113.623 29.9892 113.491 29.3117C113.359 29.9892 113.227 30.6667 112.963 31.3442L112.172 34.0542H110.854L109.008 27.6857H110.458L111.117 30.6667C111.249 31.3442 111.381 32.0217 111.513 32.6992C111.645 32.1572 111.777 31.4797 112.04 30.6667L112.963 27.6857H114.15L114.941 30.6667C115.205 31.3442 115.337 32.1572 115.469 32.8347C115.6 32.1572 115.732 31.4797 115.864 30.6667L116.655 27.6857H118.106Z" fill="#2F2F2F"/>
<path d="M125.227 34.0546H123.909V30.3962C123.909 29.3122 123.513 28.7702 122.722 28.7702C122.326 28.7702 121.931 28.9057 121.667 29.1767C121.403 29.4477 121.272 29.8542 121.272 30.2607V34.0546H119.953V29.4477C119.953 28.9057 119.953 28.2282 119.953 27.6862H121.008V28.6347C121.14 28.3637 121.403 28.0927 121.667 27.8217C122.063 27.5507 122.458 27.4152 122.854 27.4152C123.381 27.4152 123.909 27.5507 124.304 27.9572C124.832 28.3637 124.963 29.1767 124.963 30.1252V34.0546H125.227Z" fill="#2F2F2F"/>
<path d="M129.045 34.0549H127.727V24.841H129.045V34.0549Z" fill="#2F2F2F"/>
<path d="M137.225 30.8027C137.225 31.7512 136.962 32.5642 136.434 33.2417C135.907 33.9192 135.116 34.1902 134.193 34.1902C133.27 34.1902 132.611 33.9192 131.951 33.2417C131.424 32.5642 131.16 31.8867 131.16 30.9382C131.16 29.9897 131.424 29.1767 131.951 28.4992C132.479 27.8217 133.27 27.5507 134.193 27.5507C135.116 27.5507 135.775 27.8217 136.434 28.4992C136.962 29.1767 137.225 29.8542 137.225 30.8027ZM135.775 30.9382C135.775 30.3962 135.643 29.8542 135.379 29.4477C135.116 28.9057 134.72 28.6347 134.193 28.6347C133.665 28.6347 133.27 28.9057 132.874 29.4477C132.611 29.8542 132.479 30.3962 132.479 30.9382C132.479 31.4802 132.611 32.0222 132.874 32.4287C133.138 32.9707 133.533 33.2417 134.193 33.2417C134.72 33.2417 135.116 32.9707 135.379 32.4287C135.643 32.0222 135.775 31.4802 135.775 30.9382Z" fill="#2F2F2F"/>
<path d="M143.818 34.0547H142.631L142.499 33.3772C142.104 33.9192 141.445 34.1902 140.654 34.1902C140.126 34.1902 139.599 34.0547 139.203 33.6482C138.939 33.2417 138.676 32.8352 138.676 32.2932C138.676 31.4802 138.939 30.9382 139.599 30.5317C140.258 30.1252 141.181 29.8542 142.236 29.9897V29.8542C142.236 29.0412 141.84 28.6347 140.917 28.6347C140.258 28.6347 139.731 28.7702 139.335 29.0412L139.203 28.0927C139.731 27.6862 140.522 27.5507 141.313 27.5507C142.895 27.5507 143.686 28.3637 143.686 30.1252V32.4287C143.818 33.2417 143.818 33.7837 143.818 34.0547ZM142.368 31.8867V30.9382C140.785 30.9382 140.126 31.3447 140.126 32.1577C140.126 32.4287 140.258 32.6997 140.39 32.9707C140.522 33.1062 140.785 33.2417 141.049 33.2417C141.313 33.2417 141.577 33.1062 141.84 32.9707C142.104 32.8352 142.236 32.5642 142.368 32.1577C142.368 32.0222 142.368 32.0222 142.368 31.8867Z" fill="#2F2F2F"/>
<path d="M151.726 34.0549H150.54V32.9709C150.144 33.7839 149.485 34.1904 148.562 34.1904C147.771 34.1904 147.243 33.9194 146.716 33.2419C146.189 32.5644 145.925 31.8869 145.925 30.9384C145.925 29.8544 146.189 29.0414 146.716 28.364C147.243 27.822 147.903 27.4155 148.694 27.4155C149.485 27.4155 150.144 27.6865 150.408 28.2285V24.841H151.726V32.4289C151.594 32.9709 151.726 33.5129 151.726 34.0549ZM150.276 31.3449V30.2609C150.276 30.1254 150.276 29.9899 150.276 29.8544C150.144 29.4479 150.012 29.1769 149.749 29.0414C149.485 28.7704 149.221 28.6349 148.826 28.6349C148.298 28.6349 147.903 28.9059 147.639 29.3124C147.375 29.7189 147.243 30.2609 147.243 30.9384C147.243 31.6159 147.375 32.0224 147.639 32.4289C147.903 32.8354 148.298 33.1064 148.826 33.1064C149.221 33.1064 149.617 32.9709 149.88 32.5644C150.144 32.2934 150.276 31.8869 150.276 31.3449Z" fill="#2F2F2F"/>
<path d="M163.456 30.8029C163.456 31.7514 163.192 32.5644 162.665 33.2419C162.137 33.9194 161.346 34.1904 160.423 34.1904C159.5 34.1904 158.841 33.9194 158.182 33.2419C157.654 32.5644 157.391 31.8869 157.391 30.9384C157.391 29.9899 157.654 29.1769 158.182 28.4994C158.709 27.8219 159.5 27.5509 160.423 27.5509C161.346 27.5509 162.005 27.8219 162.665 28.4994C163.192 29.1769 163.456 29.8544 163.456 30.8029ZM162.137 30.9384C162.137 30.3964 162.005 29.8544 161.742 29.4479C161.478 28.9059 161.082 28.6349 160.555 28.6349C160.028 28.6349 159.632 28.9059 159.237 29.4479C158.973 29.8544 158.841 30.3964 158.841 30.9384C158.841 31.4804 158.973 32.0224 159.237 32.4289C159.5 32.9709 159.896 33.2419 160.555 33.2419C161.082 33.2419 161.478 32.9709 161.742 32.4289C162.005 32.0224 162.137 31.4804 162.137 30.9384Z" fill="#2F2F2F"/>
<path d="M170.976 34.0546H169.658V30.3962C169.658 29.3122 169.262 28.7702 168.339 28.7702C167.944 28.7702 167.548 28.9057 167.284 29.1767C167.021 29.4477 166.889 29.8542 166.889 30.2607V34.0546H165.57V29.4477C165.57 28.9057 165.57 28.2282 165.57 27.6862H166.757V28.6347C166.889 28.3637 167.153 28.0927 167.416 27.8217C167.812 27.5507 168.207 27.4152 168.735 27.4152C169.262 27.4152 169.79 27.5507 170.185 27.9572C170.713 28.3637 170.844 29.1767 170.844 30.1252V34.0546H170.976Z" fill="#2F2F2F"/>
<path d="M180.199 28.77H178.616V31.8864C178.616 32.6994 178.88 33.1059 179.408 33.1059C179.671 33.1059 179.803 33.1059 180.067 33.1059V34.1899C179.803 34.3254 179.408 34.3254 179.012 34.3254C178.485 34.3254 178.089 34.1899 177.694 33.7834C177.43 33.3769 177.298 32.8349 177.298 32.0219V28.77H176.375V27.686H177.298V26.602L178.616 26.1955V27.8215H180.199V28.77Z" fill="#2F2F2F"/>
<path d="M187.588 34.0549H186.269V30.3964C186.269 29.3124 185.874 28.6349 185.083 28.6349C184.423 28.6349 184.028 28.9059 183.764 29.5834C183.764 29.7189 183.764 29.8544 183.764 30.1254V33.9194H182.446V24.841H183.764V28.6349C184.16 27.9575 184.819 27.551 185.61 27.551C186.137 27.551 186.665 27.6865 187.06 28.093C187.588 28.6349 187.72 29.3124 187.72 30.2609C187.588 30.2609 187.588 34.0549 187.588 34.0549Z" fill="#2F2F2F"/>
<path d="M195.105 30.6671C195.105 30.9381 195.105 31.0736 195.105 31.3446H190.886C190.886 32.022 191.15 32.4285 191.545 32.835C191.941 33.106 192.336 33.2415 192.864 33.2415C193.523 33.2415 194.05 33.106 194.578 32.9705L194.841 33.919C194.314 34.19 193.523 34.3255 192.732 34.3255C191.809 34.3255 191.018 34.0545 190.49 33.5125C189.963 32.9705 189.699 32.1575 189.699 31.2091C189.699 30.2606 189.963 29.4476 190.49 28.7701C191.018 28.0926 191.809 27.6861 192.6 27.6861C193.523 27.6861 194.182 28.0926 194.578 28.7701C194.973 29.1766 195.105 29.8541 195.105 30.6671ZM193.787 30.2606C193.787 29.8541 193.655 29.4476 193.523 29.1766C193.259 28.7701 192.864 28.6346 192.468 28.6346C192.073 28.6346 191.677 28.7701 191.413 29.1766C191.15 29.4476 191.018 29.8541 191.018 30.2606C190.886 30.2606 193.787 30.2606 193.787 30.2606Z" fill="#2F2F2F"/>
</svg>
