<svg width="1399" height="959" viewBox="0 0 1399 959" fill="none" xmlns="http://www.w3.org/2000/svg">
<path d="M0 451.656C0 408.587 0 387.053 13.1549 373.168C26.3099 359.283 47.8127 358.121 90.8185 355.796L1297.39 290.577C1344.86 288.011 1368.59 286.728 1383.58 300.928C1398.57 315.127 1398.57 338.897 1398.57 386.437V863C1398.57 908.255 1398.57 930.882 1384.51 944.941C1370.45 959 1347.82 959 1302.57 959H95.9999C50.7451 959 28.1177 959 14.0589 944.941C0 930.882 0 908.255 0 863V451.656Z" fill="#EAB221" fill-opacity="0.1"/>
<mask id="mask0_1_339" style="mask-type:alpha" maskUnits="userSpaceOnUse" x="0" y="5" width="1399" height="954">
<path d="M0 196.479C0 154.305 0 133.218 12.7814 119.416C25.5627 105.614 46.5876 103.997 88.6373 100.762L1295.21 7.95083C1343.6 4.22834 1367.8 2.36709 1383.18 16.6154C1398.57 30.8637 1398.57 55.1318 1398.57 103.668V863C1398.57 908.255 1398.57 930.882 1384.51 944.941C1370.45 959 1347.82 959 1302.57 959H95.9999C50.7451 959 28.1177 959 14.0589 944.941C0 930.882 0 908.255 0 863V196.479Z" fill="#F0EBFD"/>
</mask>
<g mask="url(#mask0_1_339)">
<path d="M-206.656 661.433C159.844 381.182 906.403 -59.7966 712.193 562.196C469.43 1339.69 1450.18 454.207 1654.95 42.8065" stroke="#EAB221" stroke-opacity="0.1" stroke-width="40"/>
<ellipse cx="1309.01" cy="866.844" rx="185.249" ry="217.431" fill="#EAB221" fill-opacity="0.1"/>
<g opacity="0.14">
<path d="M493.597 1003.62L495.033 1003.69C477.177 977.652 435.752 957.139 388.799 951.144C376.085 949.537 368.051 943.546 365.54 933.803C363.697 926.624 364.861 917.771 368.964 908.168C373.065 898.607 379.643 889.204 388.015 880.983C391.215 877.84 394.876 873.831 398.763 869.538C416.811 849.652 441.545 822.48 462.185 836.448C473.471 844.111 475.17 857.658 476.95 871.969C478.759 886.492 480.623 901.524 493.488 909.303C497.366 911.637 501.875 913.368 507.016 914.495L507.104 911.924C502.284 910.854 498.095 909.223 494.465 907.026C482.587 899.843 480.859 886.083 479.05 871.56C477.27 857.249 475.433 842.472 463.232 834.217C447.127 823.332 429.24 835.288 413.544 850.513C401.132 861.205 389.629 874.768 381.234 882.608C352.335 909.544 342.269 951.798 379.186 958.843C415.53 965.82 448.324 982.045 468.675 1002.42L493.597 1003.62Z" fill="#44A798"/>
<path d="M444.48 541.95C440.302 541.037 435.972 539.315 431.394 537.496C423.55 534.385 415.529 531.224 407.632 531.784C400.656 530.655 393.74 530.965 387.28 534.759C379.573 539.296 376.693 551.024 379.521 559.896C388.397 587.71 423.435 590.784 427.225 622.202L427.223 622.245C429.798 635.41 423.044 649.998 415.855 659.414C403.624 675.35 381.903 687.928 362.595 689.812C361.735 689.73 360.837 689.688 359.976 689.605C352.3 688.993 343.797 688.342 335.335 688.622C320.967 688.035 305.971 688.981 294.269 696.75C275.798 708.975 279.687 742.762 296.839 737.611C297.605 738.365 298.446 739.037 299.329 739.501C302.79 741.394 308.774 742.053 317.385 734.223C326.737 725.752 335.312 722.143 344.355 722.776C352.32 723.36 360.821 727.261 371.912 735.379C381.738 742.593 391.061 752.993 400.901 764.05C416.115 781.057 431.883 798.682 450.181 804.308C461.394 807.745 474.373 807.929 488.795 804.804C495.861 803.277 503.313 800.965 511.044 797.865L511.135 795.167C503.221 798.386 495.622 800.775 488.411 802.337C474.315 805.394 461.624 805.223 450.73 801.885C432.967 796.41 417.406 779.049 402.366 762.218C392.42 751.114 383.029 740.585 373.028 733.236C361.622 724.85 352.801 720.849 344.477 720.249C334.861 719.546 325.847 723.347 316.05 732.219C309.89 737.799 304.437 739.486 300.235 737.179C296.493 735.104 294.113 729.969 293.905 723.373C293.656 715.889 296.576 705.091 305.519 699.134C320.79 688.998 342.457 690.728 359.856 692.091C361.65 692.217 363.407 692.383 365.13 692.506C385.94 694.028 412.758 680.716 427.436 661.56C434.812 651.941 441.727 636.855 439.059 623.262L439.06 623.22C436.284 609.623 424.705 600.004 413.473 590.74C405.392 584.03 397.764 577.72 393.488 570.174C389.38 562.974 387.904 555.601 389.299 549.46C390.482 544.281 393.572 540.161 398.527 537.226C408.768 531.161 419.948 535.61 430.738 539.872C435.387 541.736 439.788 543.461 444.108 544.423C456.533 547.157 471.313 546.202 485.707 541.766C499.303 537.547 511.452 530.389 520.39 521.392L520.509 517.893C511.698 527.361 499.212 534.925 485.144 539.291C471.256 543.624 456.44 544.578 444.48 541.95Z" fill="#44A798"/>
<path d="M339.361 958.712C320.124 945.781 301.906 933.572 296.009 919.745C292.377 911.216 291.866 904.015 294.418 897.717C301.396 880.776 330.015 873.712 355.262 867.462C374.305 862.779 390.738 858.693 397.504 851.156C405.616 842.121 409.009 832.231 407.602 821.78C403.617 791.872 362.047 766.117 349.377 758.939C329.297 747.53 314.622 748.575 296.917 762.608C294.699 764.362 292.362 766.448 289.877 768.654C278.974 778.319 265.367 790.306 251.953 783.853C241.442 778.802 230.321 781.111 219.821 790.541C211.064 798.449 203.116 811.123 198.066 825.325C196.237 830.475 194.616 835.845 193.036 841.049C187.201 860.365 181.655 878.598 165.67 889.629C160.513 893.188 154.388 896.659 147.739 899.683L147.646 902.423C154.768 899.252 161.295 895.589 166.783 891.792C183.432 880.285 189.346 860.761 195.095 841.863C196.673 836.702 198.257 831.372 200.085 826.264C204.978 812.434 212.662 800.128 221.157 792.504C228.022 786.323 238.804 780.199 251.156 786.138C265.702 793.151 279.829 780.681 291.178 770.615C293.625 768.449 295.961 766.406 298.142 764.65C315.072 751.214 329.17 750.226 348.438 761.175C355.637 765.269 369.589 773.858 382.218 785.425C396.1 798.191 403.918 810.547 405.468 822.102C406.725 831.703 403.574 840.843 396.022 849.272C389.704 856.322 372.728 860.51 354.808 864.95C329.054 871.303 299.89 878.51 292.479 896.571C289.617 903.53 290.168 911.661 294.065 920.836C300.263 935.353 318.727 947.742 338.281 960.857C355.724 972.565 373.589 984.588 383.047 998.413L385.849 998.544C376.463 983.625 357.719 971.012 339.361 958.712Z" fill="#44A798"/>
<path d="M298.213 971.692C286.771 964.36 275.965 957.395 270.975 948.634C263.167 934.928 260.452 919.518 263.348 905.215C266.289 890.618 274.885 877.932 287.506 869.572C292.583 866.221 302.361 863.216 312.757 860.029C333.548 853.655 357.101 846.439 360.678 832.167C361.844 827.493 361.522 823.214 359.707 819.456C354.869 809.393 340.38 804.959 328.774 801.419C323.754 799.875 319.41 798.574 316.764 797.057C302.437 788.915 291.943 789.691 279.302 799.697C277.416 801.213 275.56 802.899 273.557 804.706C268.398 809.404 263.087 814.306 257.112 815.505C254.179 816.085 251.435 815.324 248.513 814.512C245.021 813.546 241.386 812.532 237.593 814.085C222.496 820.135 216.212 844.201 211.167 863.554C209.761 868.935 208.438 874.024 207.076 878.097C198.191 904.617 186.061 940.907 162.193 957.396C157.552 960.599 151.837 963.667 145.637 966.163L145.546 968.861C152.216 966.26 158.37 963.001 163.307 959.559C187.801 942.635 200.128 905.848 209.096 878.994C210.498 874.795 211.823 869.664 213.266 864.244C218.184 845.433 224.266 822.033 238.341 816.4C241.586 815.117 244.722 815.981 248.072 816.897C251.066 817.713 254.202 818.577 257.533 817.931C264.052 816.631 269.583 811.57 274.929 806.67C276.859 804.902 278.715 803.216 280.526 801.781C292.429 792.331 302.308 791.653 315.859 799.337C318.682 800.947 323.133 802.295 328.258 803.885C339.508 807.324 353.463 811.607 357.866 820.721C359.412 823.918 359.653 827.391 358.651 831.481C355.407 844.417 331.49 851.743 312.228 857.598C301.25 860.968 291.764 863.86 286.466 867.37C273.327 876.128 264.354 889.345 261.281 904.654C258.253 919.668 261.052 935.758 269.199 950.071C274.496 959.353 285.513 966.454 297.202 973.924C307.517 980.528 318.041 987.311 324.66 995.768L327.677 995.909C320.918 986.263 309.443 978.887 298.213 971.692Z" fill="#44A798"/>
<path d="M260.205 974.431L259.35 973.124C248.726 956.542 236.701 937.784 243.296 916.223C244.915 910.895 247.5 905.739 249.97 900.788C255.413 889.854 261.048 878.55 257.14 864.393C254.77 855.796 251.075 853.386 248.36 852.837C244.001 852 239.137 855.403 234.727 862.417C228.035 873.038 224.755 885.973 221.597 898.49C220.06 904.54 218.481 910.799 216.558 916.578C208.754 939.855 198.465 970.658 179.894 988.999L183.018 989.145C200.852 970.263 210.898 940.293 218.541 917.515C220.504 911.611 222.12 905.312 223.658 899.22C226.773 886.911 230.009 874.228 236.474 863.934C240.35 857.824 244.557 854.686 248.023 855.354C251.026 855.917 253.464 859.324 255.099 865.184C258.72 878.272 253.55 888.585 248.107 899.519C245.597 904.594 242.973 909.833 241.275 915.369L241.273 915.411C234.311 938.263 246.712 957.588 257.642 974.691L258.497 975.997C258.77 976.432 259.181 977.043 259.659 977.783C263.317 983.4 266.489 988.53 269.137 993.171L271.83 993.297C268.507 987.358 264.752 981.398 261.367 976.216C260.853 975.474 260.478 974.866 260.205 974.431Z" fill="#44A798"/>
<path d="M368.653 582.448C358.895 577.314 349.95 575.283 343.469 576.683C334.243 578.678 328.93 586.7 323.82 594.484C321.964 597.258 320.032 600.18 317.972 602.715C312.583 609.335 306.279 612.614 299.595 616.102C292.63 619.739 285.437 623.465 279.438 631.279L279.336 631.458C276.946 635.693 275.293 639.659 274.377 643.239C268.376 657.793 267.559 674.855 279.858 681.123C295.358 689.003 313.866 664.43 327.667 658.499C346.399 650.421 364.186 663.671 383.299 658.249C396.973 654.376 406.329 637.316 405.645 630.127C405.569 629.262 405.416 628.367 405.239 627.502C405.239 626.965 405.214 626.458 405.163 625.921C404.479 618.553 400.541 610.468 393.758 602.502C387.126 594.654 377.979 587.373 368.653 582.448ZM300.509 618.429C307.092 615.001 313.879 611.454 319.573 604.476C321.709 601.851 323.666 598.899 325.547 596.036C330.658 588.312 335.513 581.005 343.875 579.188C356.227 576.508 378.411 587.999 392.258 604.261C398.686 611.81 402.394 619.388 403.028 626.159C403.713 633.408 398.018 638.775 386.2 642.142C378.016 644.466 369.502 645.269 361.242 646.012C350.238 647.052 338.877 648.092 328.05 652.742C324.11 654.441 320.247 656.826 316.536 659.151C306.953 665.144 297.879 670.779 287.206 665.346C283.877 663.645 281.209 661.645 279.355 659.467C274.019 653.201 274.58 644.491 281.089 632.86C286.809 625.554 293.773 621.917 300.509 618.429Z" fill="#44A798"/>
<path d="M449.376 887.226C448.465 886.508 447.441 885.954 446.341 885.522C439.382 882.833 431.003 884.89 423.382 891.12C414.503 898.388 408.506 909.76 408.155 920.087C408.118 921.183 408.151 922.325 408.223 923.383C408.607 927.961 410.495 931.68 413.853 934.497C420.569 940.088 432.308 940.764 439.972 938.589C444.403 937.318 448.537 933.163 451.591 926.889C454.374 921.193 456.09 914.096 456.317 907.393C456.595 898.161 454.076 890.781 449.376 887.226ZM439.48 936.117C433.341 937.899 421.722 937.904 415.111 932.402C412.278 930.032 410.693 926.919 410.391 923.105C410.316 922.13 410.277 921.157 410.311 920.146C410.636 910.577 416.248 899.948 424.608 893.161C431.673 887.412 439.364 885.492 445.685 887.898C446.608 888.237 447.454 888.741 448.226 889.326C452.293 892.429 454.446 898.947 454.163 907.293C453.721 919.262 448.015 933.687 439.48 936.117Z" fill="#44A798"/>
<path d="M457.232 746.174C458.27 746.591 459.381 746.816 460.539 746.898C467.854 747.382 475.494 742.85 481.482 734.517C488.456 724.799 491.741 711.993 489.802 701.911C489.596 700.841 489.313 699.749 489.009 698.748C487.629 694.443 484.985 691.424 481.121 689.723C473.4 686.363 461.912 689.277 454.99 693.705C450.989 696.279 447.913 701.548 446.346 708.537C444.914 714.884 444.822 722.26 446.08 728.803C447.848 737.805 451.909 744.168 457.232 746.174ZM456.01 695.943C461.547 692.357 472.768 688.822 480.368 692.128C483.627 693.557 485.844 696.083 486.977 699.675C487.264 700.594 487.516 701.522 487.706 702.509C489.503 711.85 486.426 723.823 479.848 732.917C474.291 740.617 467.286 744.808 460.649 744.404C459.682 744.357 458.754 744.128 457.88 743.797C453.267 742.035 449.75 736.393 448.183 728.246C445.971 716.55 448.301 700.883 456.01 695.943Z" fill="#44A798"/>
<path d="M402.543 706.311C400.984 707.273 399.166 709.289 399.393 713.354C399.603 717.157 401.724 722.858 403.924 725.55C407.091 729.437 413.701 728.865 418.225 726.075C421.448 724.087 423.395 721.174 423.499 718.072C423.528 717.47 423.478 716.839 423.362 716.21C422.78 712.909 420.138 709.749 416.159 707.531C412.062 705.269 406.261 704.018 402.543 706.311ZM421.662 716.636C421.735 717.096 421.769 717.543 421.764 717.975C421.66 720.336 420.083 722.593 417.405 724.245C412.414 727.323 407.199 726.567 405.174 724.118C403.282 721.819 401.339 716.515 401.151 713.205C401.018 710.833 401.751 709.136 403.363 708.142C406.092 706.458 411.04 706.989 415.443 709.413C418.852 711.321 421.183 714.011 421.662 716.636Z" fill="#44A798"/>
<path d="M525.869 632.942C526.746 644.213 540.103 656.574 545.803 661.358C548.497 663.595 551.196 665.663 553.903 667.52L554 664.654C551.682 663.026 549.333 661.227 547.06 659.306C535.694 649.74 528.549 639.822 527.999 632.704C527.546 626.983 531.526 623.116 539.827 621.224C544.395 620.171 549.904 621.062 555.425 622.671L555.512 620.1C549.884 618.486 544.228 617.673 539.408 618.756C532.847 620.223 525.168 623.917 525.869 632.942Z" fill="#44A798"/>
<path d="M443.908 598.672C443.53 605.578 445.775 612.564 450.733 620.142C458.532 631.99 470.231 639.165 481.505 646.11C482.211 646.523 482.88 646.934 483.548 647.387C508.176 662.555 528.125 676.744 545.361 696.717C546.122 697.597 546.988 698.566 547.922 699.665C549.307 701.25 550.901 703.055 552.596 705.035L552.712 701.62C551.535 700.257 550.426 699.023 549.422 697.878C548.486 696.821 547.621 695.81 546.859 694.972C529.415 674.778 509.325 660.498 484.522 645.195C483.852 644.784 483.147 644.371 482.443 643.916C471.344 637.107 459.892 630.07 452.366 618.657C447.75 611.601 445.631 605.127 445.987 598.896C446.408 590.725 448.474 583.898 451.944 579.163C455.715 574.019 460.869 571.601 467.292 572.07C478.668 572.855 488.773 579.28 498.561 585.522C508.314 591.719 518.349 598.099 529.927 599.273C539.714 600.238 548.815 599.143 556.289 596.2L556.381 593.502C549.084 596.538 539.979 597.717 530.121 596.749C519.008 595.639 509.15 589.352 499.607 583.291C489.643 576.957 479.327 570.395 467.45 569.544C453.959 568.533 444.911 579.72 443.908 598.672Z" fill="#44A798"/>
</g>
<path d="M-31.8972 958.28H124.522L-46.0055 770.368L-218.373 586.056L-220.827 744.449L-182.795 784.047L-220.827 825.806L-218.373 958.28L-182.795 958.28L-107.96 869.724L-31.8972 958.28Z" fill="#D9A41D" fill-opacity="0.2"/>
<path d="M1356.24 40.3183H1199.82L1370.35 228.23L1542.72 412.543L1545.17 254.149L1507.14 214.551L1545.17 172.793L1542.72 40.3183H1507.14L1432.31 128.875L1356.24 40.3183Z" fill="#D9A41D" fill-opacity="0.2"/>
</g>
</svg>
