<svg width="45" height="19" viewBox="0 0 45 19" fill="none" xmlns="http://www.w3.org/2000/svg">
<rect width="45" height="19" rx="9.5" fill="#EF9B11"/>
<path d="M16.8532 6.14851C16.8532 6.48755 16.7643 6.7842 16.6457 6.9961C16.4679 7.25037 16.2604 7.37751 15.9937 7.37751C15.727 7.37751 15.5195 7.25037 15.3417 6.9961C15.1639 6.74182 15.075 6.44517 15.075 6.06376C15.075 5.68234 15.1639 5.38569 15.3417 5.13141C15.5195 4.87714 15.727 4.75 15.9937 4.75C16.1123 4.75 16.2308 4.79238 16.3494 4.87714C16.4679 4.9619 16.5568 5.04666 16.6161 5.17379L16.4679 5.38569C16.3494 5.17379 16.2012 5.08903 15.9641 5.08903C15.7863 5.08903 15.6085 5.17379 15.4899 5.38569C15.3417 5.55521 15.2825 5.80948 15.2825 6.10613C15.2825 6.40279 15.3417 6.65706 15.4899 6.82658C15.6381 6.9961 15.7863 7.12323 15.9641 7.12323C16.1715 7.12323 16.3197 7.03848 16.4679 6.82658C16.5568 6.69944 16.6161 6.52993 16.6161 6.31803H15.9641V6.02138H16.8235C16.8532 6.02138 16.8532 6.10613 16.8532 6.14851Z" fill="#2F2F2F"/>
<path d="M18.2454 5.08858H17.4452V5.89379H18.1861V6.19044H17.4452V6.99565H18.2454V7.2923H17.2081V4.79193H18.2454C18.2454 4.79193 18.2454 5.08858 18.2454 5.08858Z" fill="#2F2F2F"/>
<path d="M19.1938 7.2923H18.9567V5.08858H18.4825V4.79193H19.6976V5.08858H19.1938C19.1938 5.08858 19.1938 7.2923 19.1938 7.2923Z" fill="#2F2F2F"/>
<path d="M20.5884 7.2923V4.79193H20.8255V7.2923H20.5884Z" fill="#2F2F2F"/>
<path d="M21.8329 7.29245H21.5958V5.08873H21.092V4.79208H22.3367V5.08873H21.8329C21.8329 5.08873 21.8329 7.29245 21.8329 7.29245Z" fill="#2F2F2F"/>
<path d="M24.6482 6.99624C24.4703 7.25052 24.2629 7.37765 23.9962 7.37765C23.7294 7.37765 23.522 7.25052 23.3442 6.99624C23.1664 6.74197 23.0774 6.44531 23.0774 6.0639C23.0774 5.68249 23.1664 5.38583 23.3442 5.13156C23.522 4.87728 23.7294 4.75014 23.9962 4.75014C24.2629 4.75014 24.4703 4.87728 24.6482 5.13156C24.826 5.38583 24.9149 5.68249 24.9149 6.0639C24.9149 6.40293 24.826 6.74197 24.6482 6.99624ZM23.4923 6.78434C23.6109 6.95386 23.7887 7.081 23.9665 7.081C24.1443 7.081 24.3222 6.99624 24.4407 6.78434C24.5592 6.61483 24.6482 6.36055 24.6482 6.0639C24.6482 5.76724 24.5889 5.51297 24.4407 5.34345C24.3222 5.17394 24.1443 5.0468 23.9665 5.0468C23.7887 5.0468 23.6109 5.13156 23.4923 5.34345C23.3738 5.51297 23.2849 5.76724 23.2849 6.0639C23.3145 6.36055 23.3738 6.57245 23.4923 6.78434Z" fill="#2F2F2F"/>
<path d="M25.2413 7.2923V4.79193H25.508L26.3675 6.74137V6.2752V4.79193H26.6046V7.2923H26.3675L25.4488 5.2581V5.72427V7.2923H25.2413Z" fill="#2F2F2F"/>
<path d="M23.0776 10.9797C22.3664 10.9797 21.8033 11.7425 21.8033 12.7596C21.8033 13.7767 22.3664 14.5396 23.0776 14.5396C23.7889 14.5396 24.352 13.7767 24.352 12.7596C24.352 11.7425 23.7889 10.9797 23.0776 10.9797ZM23.0776 13.8615C22.6924 13.8615 22.3664 13.3953 22.3664 12.7596C22.3664 12.124 22.6924 11.6578 23.0776 11.6578C23.4629 11.6578 23.7889 12.0816 23.7889 12.7596C23.7889 13.3953 23.4629 13.8615 23.0776 13.8615ZM20.3215 10.9797C19.6102 10.9797 19.0471 11.7425 19.0471 12.7596C19.0471 13.7767 19.6102 14.5396 20.3215 14.5396C21.0327 14.5396 21.5958 13.7767 21.5958 12.7596C21.5662 11.7425 21.0031 10.9797 20.3215 10.9797ZM20.3215 13.8615C19.9362 13.8615 19.6102 13.3953 19.6102 12.7596C19.6102 12.124 19.9362 11.6578 20.3215 11.6578C20.7067 11.6578 21.0327 12.0816 21.0327 12.7596C21.0327 13.3953 20.7067 13.8615 20.3215 13.8615ZM17.0319 11.5307V12.2935H18.3062C18.2766 12.7173 18.158 13.0139 18.0099 13.2258C17.832 13.4801 17.5357 13.7767 17.0319 13.7767C16.2317 13.7767 15.639 12.8868 15.639 11.7426C15.639 10.5983 16.2613 9.70835 17.0319 9.70835C17.4468 9.70835 17.7728 9.96263 18.0099 10.2593L18.3951 9.70835C18.0691 9.28456 17.6542 8.94552 17.0615 8.94552C15.965 8.94552 15.0759 10.1745 15.0759 11.7002C15.0759 13.2258 15.9946 14.4548 17.0615 14.4548C17.6542 14.4548 18.0988 14.2005 18.4248 13.692C18.7804 13.1834 18.8989 12.5054 18.8989 11.9121C18.8989 11.7425 18.8989 11.573 18.8693 11.4459C18.81 11.5307 17.0319 11.5307 17.0319 11.5307ZM30.4867 12.124C30.3681 11.7425 30.0718 10.9797 29.3901 10.9797C28.7381 10.9797 28.2047 11.7002 28.2047 12.7596C28.2047 13.7767 28.7381 14.5396 29.4494 14.5396C30.0421 14.5396 30.3681 14.031 30.5163 13.7344L30.0718 13.3106C29.9236 13.6072 29.7458 13.8191 29.4494 13.8191C29.1827 13.8191 28.9752 13.6496 28.8271 13.2682L30.5163 12.2935C30.546 12.3359 30.4867 12.124 30.4867 12.124ZM28.7678 12.7173C28.7678 12.0392 29.1531 11.6578 29.4198 11.6578C29.6272 11.6578 29.8347 11.8273 29.894 12.0392L28.7678 12.7173ZM27.3749 14.4548H27.938V9.1998H27.3749V14.4548ZM26.4858 11.3611C26.3376 11.1492 26.1005 10.9797 25.8042 10.9797C25.1818 10.9797 24.5891 11.7849 24.5891 12.7596C24.5891 13.7767 25.1818 14.5396 25.8042 14.5396C26.1005 14.5396 26.3376 14.3701 26.4562 14.1158H26.4858V14.3701C26.4858 15.0481 26.2191 15.4295 25.8042 15.4295C25.4782 15.4295 25.2411 15.0905 25.1818 14.7939L24.7076 15.0905C24.8558 15.5567 25.2114 16.15 25.8338 16.15C26.4858 16.15 27.0489 15.5991 27.0489 14.2853V11.0645H26.5154L26.4858 11.3611ZM25.8338 13.8615C25.4485 13.8615 25.1225 13.3953 25.1225 12.802C25.1225 12.1663 25.4485 11.7002 25.8338 11.7002C26.2191 11.7002 26.5154 12.1663 26.5154 12.802C26.5154 13.3953 26.2191 13.8615 25.8338 13.8615ZM33.065 9.1998H31.7314V14.4548H32.2945V12.463H33.065C33.6874 12.463 34.2801 11.8273 34.2801 10.8526C34.3097 9.83549 33.6874 9.1998 33.065 9.1998ZM33.0947 11.7426H32.2945V9.92025H33.0947C33.5096 9.92025 33.7467 10.3864 33.7467 10.8102C33.7467 11.234 33.5096 11.7426 33.0947 11.7426ZM36.5325 10.9797C36.1175 10.9797 35.7026 11.234 35.5545 11.7849L36.0583 12.0816C36.1768 11.7849 36.3546 11.7002 36.5621 11.7002C36.8585 11.7002 37.1548 11.9544 37.1548 12.3782V12.4206C37.0659 12.3359 36.8288 12.2087 36.5621 12.2087C36.0286 12.2087 35.4952 12.6325 35.4952 13.3953C35.4952 14.1158 35.9397 14.5396 36.4139 14.5396C36.7992 14.5396 37.0066 14.2853 37.1252 14.031H37.1548V14.4548H37.6883V12.4206C37.6586 11.4883 37.1548 10.9797 36.5325 10.9797ZM36.4436 13.8615C36.2657 13.8615 35.999 13.7344 35.999 13.4377C35.999 13.0139 36.325 12.8868 36.5917 12.8868C36.8288 12.8868 36.9474 12.9715 37.0955 13.0563C37.0659 13.5225 36.7695 13.8615 36.4436 13.8615ZM39.585 11.1069L38.9626 13.3953H38.933L38.281 11.1069H37.6883L38.6663 14.2853L38.1032 16.0652H38.6959L40.2073 11.1069H39.585ZM34.6061 14.4548H35.1692V9.1998H34.6061V14.4548Z" fill="#2F2F2F"/>
<path d="M5.32218 4.88845C5.23388 5.01473 5.175 5.2252 5.175 5.47776V14.6962C5.175 14.9488 5.23388 15.1593 5.32218 15.2855L5.35162 15.3276L9.00173 10.1501V10.0239L5.32218 4.88845Z" fill="url(#paint0_linear_1_31)"/>
<path d="M10.2087 11.8759L9.00176 10.15V10.0238L10.2087 8.29793L10.2381 8.34002L11.6805 9.51864C12.0926 9.85539 12.0926 10.4026 11.6805 10.7393L10.2087 11.8759C10.2087 11.8759 10.2381 11.8759 10.2087 11.8759Z" fill="url(#paint1_linear_1_31)"/>
<path d="M10.2385 11.8756L9.0022 10.1077L5.32266 15.2852C5.46984 15.4956 5.67589 15.4956 5.94082 15.3272L10.2385 11.8756Z" fill="url(#paint2_linear_1_31)"/>
<path d="M10.2385 8.34003L5.94082 4.88837C5.67589 4.6779 5.46984 4.72 5.32266 4.93046L9.0022 10.108L10.2385 8.34003Z" fill="url(#paint3_linear_1_31)"/>
<defs>
<linearGradient id="paint0_linear_1_31" x1="8.67214" y1="14.7892" x2="2.07235" y2="10.1194" gradientUnits="userSpaceOnUse">
<stop stop-color="#00A0FF"/>
<stop offset="0.0066" stop-color="#00A1FF"/>
<stop offset="0.2601" stop-color="#00BEFF"/>
<stop offset="0.5122" stop-color="#00D2FF"/>
<stop offset="0.7604" stop-color="#00DFFF"/>
<stop offset="1" stop-color="#00E3FF"/>
</linearGradient>
<linearGradient id="paint1_linear_1_31" x1="12.2149" y1="10.0869" x2="5.07515" y2="10.0869" gradientUnits="userSpaceOnUse">
<stop stop-color="#FFE000"/>
<stop offset="0.4087" stop-color="#FFBD00"/>
<stop offset="0.7754" stop-color="#FFA500"/>
<stop offset="1" stop-color="#FF9C00"/>
</linearGradient>
<linearGradient id="paint2_linear_1_31" x1="7.09994" y1="12.6081" x2="-1.84988" y2="6.27549" gradientUnits="userSpaceOnUse">
<stop stop-color="#FF3A44"/>
<stop offset="1" stop-color="#C31162"/>
</linearGradient>
<linearGradient id="paint3_linear_1_31" x1="1.93858" y1="14.9019" x2="5.93508" y2="12.0741" gradientUnits="userSpaceOnUse">
<stop stop-color="#32A071"/>
<stop offset="0.0685" stop-color="#2DA771"/>
<stop offset="0.4762" stop-color="#15CF74"/>
<stop offset="0.8009" stop-color="#06E775"/>
<stop offset="1" stop-color="#00F076"/>
</linearGradient>
</defs>
</svg>
