<svg width="226" height="88" viewBox="0 0 226 88" fill="none" xmlns="http://www.w3.org/2000/svg">
<rect width="226" height="88" rx="44" fill="white"/>
<path d="M85.2036 30.4164C85.2036 31.487 84.8084 32.4238 84.2815 33.0929C83.4912 33.8959 82.5692 34.2974 81.3838 34.2974C80.1983 34.2974 79.2763 33.8959 78.486 33.0929C77.6957 32.29 77.3006 31.3532 77.3006 30.1487C77.3006 28.9442 77.6957 28.0074 78.486 27.2045C79.2763 26.4015 80.1983 26 81.3838 26C81.9106 26 82.4375 26.1338 82.9644 26.4015C83.4912 26.6692 83.8864 26.9368 84.1498 27.3383L83.4912 28.0074C82.9644 27.3383 82.3058 27.0706 81.2521 27.0706C80.4618 27.0706 79.6715 27.3383 79.1446 28.0074C78.486 28.5428 78.2226 29.3457 78.2226 30.2825C78.2226 31.2193 78.486 32.0223 79.1446 32.5576C79.8032 33.0929 80.4618 33.4944 81.2521 33.4944C82.1741 33.4944 82.8327 33.2268 83.4912 32.5576C83.8864 32.1561 84.1498 31.6208 84.1498 30.9517H81.2521V30.0149H85.0718C85.2036 30.0149 85.2036 30.2825 85.2036 30.4164Z" fill="#2F2F2F"/>
<path d="M91.3911 27.0692H87.8348V29.612H91.1277V30.5488H87.8348V33.0915H91.3911V34.0283H86.781V26.1324H91.3911C91.3911 26.1324 91.3911 27.0692 91.3911 27.0692Z" fill="#2F2F2F"/>
<path d="M95.6063 34.0283H94.5526V27.0692H92.4451V26.1324H97.8455V27.0692H95.6063C95.6063 27.0692 95.6063 34.0283 95.6063 34.0283Z" fill="#2F2F2F"/>
<path d="M101.804 34.0283V26.1324H102.858V34.0283H101.804Z" fill="#2F2F2F"/>
<path d="M107.336 34.0288H106.282V27.0697H104.043V26.1329H109.575V27.0697H107.336C107.336 27.0697 107.336 34.0288 107.336 34.0288Z" fill="#2F2F2F"/>
<path d="M119.848 33.0934C119.058 33.8964 118.136 34.2979 116.95 34.2979C115.765 34.2979 114.843 33.8964 114.052 33.0934C113.262 32.2904 112.867 31.3536 112.867 30.1492C112.867 28.9447 113.262 28.0079 114.052 27.2049C114.843 26.4019 115.765 26.0005 116.95 26.0005C118.136 26.0005 119.058 26.4019 119.848 27.2049C120.638 28.0079 121.033 28.9447 121.033 30.1492C121.033 31.2198 120.638 32.2904 119.848 33.0934ZM114.711 32.4242C115.238 32.9596 116.028 33.361 116.818 33.361C117.609 33.361 118.399 33.0934 118.926 32.4242C119.453 31.8889 119.848 31.086 119.848 30.1492C119.848 29.2124 119.585 28.4094 118.926 27.8741C118.399 27.3387 117.609 26.9373 116.818 26.9373C116.028 26.9373 115.238 27.2049 114.711 27.8741C114.184 28.4094 113.789 29.2124 113.789 30.1492C113.921 31.086 114.184 31.7551 114.711 32.4242Z" fill="#2F2F2F"/>
<path d="M122.484 34.0283V26.1324H123.67L127.489 32.2885V30.8164V26.1324H128.543V34.0283H127.489L123.406 27.6045V29.0766V34.0283H122.484Z" fill="#2F2F2F"/>
<path d="M112.868 45.6729C109.707 45.6729 107.204 48.0818 107.204 51.2937C107.204 54.5056 109.707 56.9145 112.868 56.9145C116.029 56.9145 118.532 54.5056 118.532 51.2937C118.532 48.0818 116.029 45.6729 112.868 45.6729ZM112.868 54.7732C111.156 54.7732 109.707 53.3011 109.707 51.2937C109.707 49.2863 111.156 47.8141 112.868 47.8141C114.58 47.8141 116.029 49.1524 116.029 51.2937C116.029 53.3011 114.58 54.7732 112.868 54.7732ZM100.618 45.6729C97.4573 45.6729 94.9547 48.0818 94.9547 51.2937C94.9547 54.5056 97.4573 56.9145 100.618 56.9145C103.78 56.9145 106.282 54.5056 106.282 51.2937C106.151 48.0818 103.648 45.6729 100.618 45.6729ZM100.618 54.7732C98.9062 54.7732 97.4573 53.3011 97.4573 51.2937C97.4573 49.2863 98.9062 47.8141 100.618 47.8141C102.331 47.8141 103.78 49.1524 103.78 51.2937C103.78 53.3011 102.331 54.7732 100.618 54.7732ZM85.998 47.4127V49.8216H91.6618C91.53 51.1599 91.0032 52.0967 90.3446 52.7658C89.5543 53.5688 88.2371 54.5056 85.998 54.5056C82.4416 54.5056 79.8073 51.6952 79.8073 48.0818C79.8073 44.4684 82.5733 41.658 85.998 41.658C87.842 41.658 89.2909 42.461 90.3446 43.3978L92.0569 41.658C90.608 40.3197 88.764 39.2491 86.1297 39.2491C81.2562 39.2491 77.3047 43.1301 77.3047 47.948C77.3047 52.7658 81.3879 56.6468 86.1297 56.6468C88.764 56.6468 90.7397 55.8439 92.1886 54.2379C93.7692 52.632 94.2961 50.4907 94.2961 48.6171C94.2961 48.0818 94.2961 47.5465 94.1644 47.145C93.9009 47.4127 85.998 47.4127 85.998 47.4127ZM145.797 49.2863C145.27 48.0818 143.953 45.6729 140.924 45.6729C138.026 45.6729 135.655 47.948 135.655 51.2937C135.655 54.5056 138.026 56.9145 141.187 56.9145C143.821 56.9145 145.27 55.3086 145.929 54.3718L143.953 53.0335C143.295 53.9703 142.504 54.6394 141.187 54.6394C140.002 54.6394 139.08 54.1041 138.421 52.8996L145.929 49.8216C146.061 49.9554 145.797 49.2863 145.797 49.2863ZM138.158 51.1599C138.158 49.0186 139.87 47.8141 141.055 47.8141C141.977 47.8141 142.899 48.3495 143.163 49.0186L138.158 51.1599ZM131.967 56.6468H134.47V40.0521H131.967V56.6468ZM128.015 46.8773C127.357 46.2082 126.303 45.6729 124.986 45.6729C122.22 45.6729 119.586 48.2156 119.586 51.2937C119.586 54.5056 122.22 56.9145 124.986 56.9145C126.303 56.9145 127.357 56.3792 127.884 55.5762H128.015V56.3792C128.015 58.5205 126.83 59.7249 124.986 59.7249C123.537 59.7249 122.483 58.6543 122.22 57.7175L120.112 58.6543C120.771 60.1264 122.352 62 125.118 62C128.015 62 130.518 60.2602 130.518 56.1115V45.9405H128.147L128.015 46.8773ZM125.118 54.7732C123.405 54.7732 121.956 53.3011 121.956 51.4275C121.956 49.4201 123.405 47.948 125.118 47.948C126.83 47.948 128.147 49.4201 128.147 51.4275C128.147 53.3011 126.83 54.7732 125.118 54.7732ZM157.256 40.0521H151.329V56.6468H153.832V50.3569H157.256C160.023 50.3569 162.657 48.3495 162.657 45.2714C162.789 42.0595 160.023 40.0521 157.256 40.0521ZM157.388 48.0818H153.832V42.3272H157.388C159.232 42.3272 160.286 43.7993 160.286 45.1376C160.286 46.4758 159.232 48.0818 157.388 48.0818ZM172.667 45.6729C170.823 45.6729 168.979 46.4759 168.321 48.2156L170.56 49.1524C171.087 48.2156 171.877 47.948 172.799 47.948C174.116 47.948 175.433 48.7509 175.433 50.0892V50.2231C175.038 49.9554 173.984 49.5539 172.799 49.5539C170.428 49.5539 168.057 50.8922 168.057 53.3011C168.057 55.5762 170.033 56.9145 172.14 56.9145C173.853 56.9145 174.775 56.1115 175.302 55.3086H175.433V56.6468H177.804V50.2231C177.672 47.2788 175.433 45.6729 172.667 45.6729ZM172.272 54.7732C171.482 54.7732 170.296 54.3718 170.296 53.435C170.296 52.0967 171.745 51.6952 172.931 51.6952C173.984 51.6952 174.511 51.9628 175.17 52.2305C175.038 53.7026 173.721 54.7732 172.272 54.7732ZM186.234 46.0744L183.468 53.3011H183.336L180.439 46.0744H177.804L182.151 56.1115L179.648 61.7324H182.283L189 46.0744H186.234ZM164.106 56.6468H166.608V40.0521H164.106V56.6468Z" fill="#2F2F2F"/>
<path d="M36.6541 27.1393C36.2617 27.5381 36 28.2027 36 29.0003V58.1112C36 58.9088 36.2617 59.5734 36.6541 59.9722L36.785 60.1051L53.0077 43.7551V43.3564L36.6541 27.1393Z" fill="url(#paint0_linear_1_205)"/>
<path d="M58.3718 49.2048L53.0078 43.7548V43.3561L58.3718 37.9061L58.5026 38.039L64.9132 41.7609C66.7448 42.8244 66.7448 44.5524 64.9132 45.6158L58.3718 49.2048C58.3718 49.2048 58.5026 49.2048 58.3718 49.2048Z" fill="url(#paint1_linear_1_205)"/>
<path d="M58.5046 49.2039L53.0098 43.621L36.6562 59.971C37.3104 60.6356 38.2262 60.6356 39.4036 60.1039L58.5046 49.2039Z" fill="url(#paint2_linear_1_205)"/>
<path d="M58.5046 38.039L39.4036 27.1391C38.2262 26.4744 37.3104 26.6073 36.6562 27.272L53.0098 43.622L58.5046 38.039Z" fill="url(#paint3_linear_1_205)"/>
<rect width="226" height="88" rx="10" fill="white"/>
<path d="M85.2036 30.4164C85.2036 31.487 84.8084 32.4238 84.2815 33.0929C83.4912 33.8959 82.5692 34.2974 81.3838 34.2974C80.1983 34.2974 79.2763 33.8959 78.486 33.0929C77.6957 32.29 77.3006 31.3532 77.3006 30.1487C77.3006 28.9442 77.6957 28.0074 78.486 27.2045C79.2763 26.4015 80.1983 26 81.3838 26C81.9106 26 82.4375 26.1338 82.9644 26.4015C83.4912 26.6692 83.8864 26.9368 84.1498 27.3383L83.4912 28.0074C82.9644 27.3383 82.3058 27.0706 81.2521 27.0706C80.4618 27.0706 79.6715 27.3383 79.1446 28.0074C78.486 28.5428 78.2226 29.3457 78.2226 30.2825C78.2226 31.2193 78.486 32.0223 79.1446 32.5576C79.8032 33.0929 80.4618 33.4944 81.2521 33.4944C82.1741 33.4944 82.8327 33.2268 83.4912 32.5576C83.8864 32.1561 84.1498 31.6208 84.1498 30.9517H81.2521V30.0149H85.0718C85.2036 30.0149 85.2036 30.2825 85.2036 30.4164Z" fill="#2F2F2F"/>
<path d="M91.3911 27.0692H87.8348V29.612H91.1277V30.5488H87.8348V33.0915H91.3911V34.0283H86.781V26.1324H91.3911C91.3911 26.1324 91.3911 27.0692 91.3911 27.0692Z" fill="#2F2F2F"/>
<path d="M95.6063 34.0283H94.5526V27.0692H92.4451V26.1324H97.8455V27.0692H95.6063C95.6063 27.0692 95.6063 34.0283 95.6063 34.0283Z" fill="#2F2F2F"/>
<path d="M101.804 34.0283V26.1324H102.858V34.0283H101.804Z" fill="#2F2F2F"/>
<path d="M107.336 34.0288H106.282V27.0697H104.043V26.1329H109.575V27.0697H107.336C107.336 27.0697 107.336 34.0288 107.336 34.0288Z" fill="#2F2F2F"/>
<path d="M119.848 33.0934C119.058 33.8964 118.136 34.2979 116.95 34.2979C115.765 34.2979 114.843 33.8964 114.052 33.0934C113.262 32.2904 112.867 31.3536 112.867 30.1492C112.867 28.9447 113.262 28.0079 114.052 27.2049C114.843 26.4019 115.765 26.0005 116.95 26.0005C118.136 26.0005 119.058 26.4019 119.848 27.2049C120.638 28.0079 121.033 28.9447 121.033 30.1492C121.033 31.2198 120.638 32.2904 119.848 33.0934ZM114.711 32.4242C115.238 32.9596 116.028 33.361 116.818 33.361C117.609 33.361 118.399 33.0934 118.926 32.4242C119.453 31.8889 119.848 31.086 119.848 30.1492C119.848 29.2124 119.585 28.4094 118.926 27.8741C118.399 27.3387 117.609 26.9373 116.818 26.9373C116.028 26.9373 115.238 27.2049 114.711 27.8741C114.184 28.4094 113.789 29.2124 113.789 30.1492C113.921 31.086 114.184 31.7551 114.711 32.4242Z" fill="#2F2F2F"/>
<path d="M122.484 34.0283V26.1324H123.67L127.489 32.2885V30.8164V26.1324H128.543V34.0283H127.489L123.406 27.6045V29.0766V34.0283H122.484Z" fill="#2F2F2F"/>
<path d="M112.868 45.6729C109.707 45.6729 107.204 48.0818 107.204 51.2937C107.204 54.5056 109.707 56.9145 112.868 56.9145C116.029 56.9145 118.532 54.5056 118.532 51.2937C118.532 48.0818 116.029 45.6729 112.868 45.6729ZM112.868 54.7732C111.156 54.7732 109.707 53.3011 109.707 51.2937C109.707 49.2863 111.156 47.8141 112.868 47.8141C114.58 47.8141 116.029 49.1524 116.029 51.2937C116.029 53.3011 114.58 54.7732 112.868 54.7732ZM100.618 45.6729C97.4573 45.6729 94.9547 48.0818 94.9547 51.2937C94.9547 54.5056 97.4573 56.9145 100.618 56.9145C103.78 56.9145 106.282 54.5056 106.282 51.2937C106.151 48.0818 103.648 45.6729 100.618 45.6729ZM100.618 54.7732C98.9062 54.7732 97.4573 53.3011 97.4573 51.2937C97.4573 49.2863 98.9062 47.8141 100.618 47.8141C102.331 47.8141 103.78 49.1524 103.78 51.2937C103.78 53.3011 102.331 54.7732 100.618 54.7732ZM85.998 47.4127V49.8216H91.6618C91.53 51.1599 91.0032 52.0967 90.3446 52.7658C89.5543 53.5688 88.2371 54.5056 85.998 54.5056C82.4416 54.5056 79.8073 51.6952 79.8073 48.0818C79.8073 44.4684 82.5733 41.658 85.998 41.658C87.842 41.658 89.2909 42.461 90.3446 43.3978L92.0569 41.658C90.608 40.3197 88.764 39.2491 86.1297 39.2491C81.2562 39.2491 77.3047 43.1301 77.3047 47.948C77.3047 52.7658 81.3879 56.6468 86.1297 56.6468C88.764 56.6468 90.7397 55.8439 92.1886 54.2379C93.7692 52.632 94.2961 50.4907 94.2961 48.6171C94.2961 48.0818 94.2961 47.5465 94.1644 47.145C93.9009 47.4127 85.998 47.4127 85.998 47.4127ZM145.797 49.2863C145.27 48.0818 143.953 45.6729 140.924 45.6729C138.026 45.6729 135.655 47.948 135.655 51.2937C135.655 54.5056 138.026 56.9145 141.187 56.9145C143.821 56.9145 145.27 55.3086 145.929 54.3718L143.953 53.0335C143.295 53.9703 142.504 54.6394 141.187 54.6394C140.002 54.6394 139.08 54.1041 138.421 52.8996L145.929 49.8216C146.061 49.9554 145.797 49.2863 145.797 49.2863ZM138.158 51.1599C138.158 49.0186 139.87 47.8141 141.055 47.8141C141.977 47.8141 142.899 48.3495 143.163 49.0186L138.158 51.1599ZM131.967 56.6468H134.47V40.0521H131.967V56.6468ZM128.015 46.8773C127.357 46.2082 126.303 45.6729 124.986 45.6729C122.22 45.6729 119.586 48.2156 119.586 51.2937C119.586 54.5056 122.22 56.9145 124.986 56.9145C126.303 56.9145 127.357 56.3792 127.884 55.5762H128.015V56.3792C128.015 58.5205 126.83 59.7249 124.986 59.7249C123.537 59.7249 122.483 58.6543 122.22 57.7175L120.112 58.6543C120.771 60.1264 122.352 62 125.118 62C128.015 62 130.518 60.2602 130.518 56.1115V45.9405H128.147L128.015 46.8773ZM125.118 54.7732C123.405 54.7732 121.956 53.3011 121.956 51.4275C121.956 49.4201 123.405 47.948 125.118 47.948C126.83 47.948 128.147 49.4201 128.147 51.4275C128.147 53.3011 126.83 54.7732 125.118 54.7732ZM157.256 40.0521H151.329V56.6468H153.832V50.3569H157.256C160.023 50.3569 162.657 48.3495 162.657 45.2714C162.789 42.0595 160.023 40.0521 157.256 40.0521ZM157.388 48.0818H153.832V42.3272H157.388C159.232 42.3272 160.286 43.7993 160.286 45.1376C160.286 46.4758 159.232 48.0818 157.388 48.0818ZM172.667 45.6729C170.823 45.6729 168.979 46.4759 168.321 48.2156L170.56 49.1524C171.087 48.2156 171.877 47.948 172.799 47.948C174.116 47.948 175.433 48.7509 175.433 50.0892V50.2231C175.038 49.9554 173.984 49.5539 172.799 49.5539C170.428 49.5539 168.057 50.8922 168.057 53.3011C168.057 55.5762 170.033 56.9145 172.14 56.9145C173.853 56.9145 174.775 56.1115 175.302 55.3086H175.433V56.6468H177.804V50.2231C177.672 47.2788 175.433 45.6729 172.667 45.6729ZM172.272 54.7732C171.482 54.7732 170.296 54.3718 170.296 53.435C170.296 52.0967 171.745 51.6952 172.931 51.6952C173.984 51.6952 174.511 51.9628 175.17 52.2305C175.038 53.7026 173.721 54.7732 172.272 54.7732ZM186.234 46.0744L183.468 53.3011H183.336L180.439 46.0744H177.804L182.151 56.1115L179.648 61.7324H182.283L189 46.0744H186.234ZM164.106 56.6468H166.608V40.0521H164.106V56.6468Z" fill="#2F2F2F"/>
<path d="M36.6541 27.1393C36.2617 27.5381 36 28.2027 36 29.0003V58.1112C36 58.9088 36.2617 59.5734 36.6541 59.9722L36.785 60.1051L53.0077 43.7551V43.3564L36.6541 27.1393Z" fill="url(#paint4_linear_1_205)"/>
<path d="M58.3718 49.2048L53.0078 43.7548V43.3561L58.3718 37.9061L58.5026 38.039L64.9132 41.7609C66.7448 42.8244 66.7448 44.5524 64.9132 45.6158L58.3718 49.2048C58.3718 49.2048 58.5026 49.2048 58.3718 49.2048Z" fill="url(#paint5_linear_1_205)"/>
<path d="M58.5046 49.2039L53.0098 43.621L36.6562 59.971C37.3104 60.6356 38.2262 60.6356 39.4036 60.1039L58.5046 49.2039Z" fill="url(#paint6_linear_1_205)"/>
<path d="M58.5046 38.039L39.4036 27.1391C38.2262 26.4744 37.3104 26.6073 36.6562 27.272L53.0098 43.622L58.5046 38.039Z" fill="url(#paint7_linear_1_205)"/>
<defs>
<linearGradient id="paint0_linear_1_205" x1="51.5428" y1="58.4049" x2="29.4422" y2="36.3962" gradientUnits="userSpaceOnUse">
<stop stop-color="#00A0FF"/>
<stop offset="0.0066" stop-color="#00A1FF"/>
<stop offset="0.2601" stop-color="#00BEFF"/>
<stop offset="0.5122" stop-color="#00D2FF"/>
<stop offset="0.7604" stop-color="#00DFFF"/>
<stop offset="1" stop-color="#00E3FF"/>
</linearGradient>
<linearGradient id="paint1_linear_1_205" x1="67.2885" y1="43.5554" x2="35.5562" y2="43.5554" gradientUnits="userSpaceOnUse">
<stop stop-color="#FFE000"/>
<stop offset="0.4087" stop-color="#FFBD00"/>
<stop offset="0.7754" stop-color="#FFA500"/>
<stop offset="1" stop-color="#FF9C00"/>
</linearGradient>
<linearGradient id="paint2_linear_1_205" x1="44.5553" y1="51.5172" x2="14.5851" y2="21.6717" gradientUnits="userSpaceOnUse">
<stop stop-color="#FF3A44"/>
<stop offset="1" stop-color="#C31162"/>
</linearGradient>
<linearGradient id="paint3_linear_1_205" x1="21.6159" y1="58.7608" x2="34.999" y2="45.4335" gradientUnits="userSpaceOnUse">
<stop stop-color="#32A071"/>
<stop offset="0.0685" stop-color="#2DA771"/>
<stop offset="0.4762" stop-color="#15CF74"/>
<stop offset="0.8009" stop-color="#06E775"/>
<stop offset="1" stop-color="#00F076"/>
</linearGradient>
<linearGradient id="paint4_linear_1_205" x1="51.5428" y1="58.4049" x2="29.4422" y2="36.3962" gradientUnits="userSpaceOnUse">
<stop stop-color="#00A0FF"/>
<stop offset="0.0066" stop-color="#00A1FF"/>
<stop offset="0.2601" stop-color="#00BEFF"/>
<stop offset="0.5122" stop-color="#00D2FF"/>
<stop offset="0.7604" stop-color="#00DFFF"/>
<stop offset="1" stop-color="#00E3FF"/>
</linearGradient>
<linearGradient id="paint5_linear_1_205" x1="67.2885" y1="43.5554" x2="35.5562" y2="43.5554" gradientUnits="userSpaceOnUse">
<stop stop-color="#FFE000"/>
<stop offset="0.4087" stop-color="#FFBD00"/>
<stop offset="0.7754" stop-color="#FFA500"/>
<stop offset="1" stop-color="#FF9C00"/>
</linearGradient>
<linearGradient id="paint6_linear_1_205" x1="44.5553" y1="51.5172" x2="14.5851" y2="21.6717" gradientUnits="userSpaceOnUse">
<stop stop-color="#FF3A44"/>
<stop offset="1" stop-color="#C31162"/>
</linearGradient>
<linearGradient id="paint7_linear_1_205" x1="21.6159" y1="58.7608" x2="34.999" y2="45.4335" gradientUnits="userSpaceOnUse">
<stop stop-color="#32A071"/>
<stop offset="0.0685" stop-color="#2DA771"/>
<stop offset="0.4762" stop-color="#15CF74"/>
<stop offset="0.8009" stop-color="#06E775"/>
<stop offset="1" stop-color="#00F076"/>
</linearGradient>
</defs>
</svg>
